<?xml version="1.0" encoding="utf-8"?>
<!-- Generator: Adobe Illustrator 24.0.1, SVG Export Plug-In . SVG Version: 6.00 Build 0)  -->
<svg version="1.1" id="Calque_1" xmlns="http://www.w3.org/2000/svg" xmlns:xlink="http://www.w3.org/1999/xlink" x="0px" y="0px"
	 viewBox="0 0 100 100" style="enable-background:new 0 0 100 100;" xml:space="preserve">
<style type="text/css">
	.st0{fill:#217D9D;}
	.st1{fill:#1D1D1B;}
</style>
<path class="st0" d="M-350.1-96.9h-154.5c-18.1,0-32.9-14.7-32.9-32.9v0c0-18.1,14.7-32.9,32.9-32.9h154.5
	c18.1,0,32.9,14.7,32.9,32.9v0C-317.2-111.7-332-96.9-350.1-96.9z"/>
<g>
	<path class="st1" d="M20.9,30c6.3,0,11.4-5.1,11.4-11.4S27.2,7.2,20.9,7.2S9.6,12.3,9.6,18.6S14.7,30,20.9,30z M20.9,9.6
		c4.9,0,8.9,4,8.9,8.9c0,4.9-4,8.9-8.9,8.9c-4.9,0-8.9-4-8.9-8.9C12,13.6,16,9.6,20.9,9.6z"/>
	<path class="st1" d="M79.2,30c6.3,0,11.4-5.1,11.4-11.4S85.4,7.2,79.2,7.2c-6.3,0-11.4,5.1-11.4,11.4S72.9,30,79.2,30z M79.2,9.6
		c4.9,0,8.9,4,8.9,8.9c0,4.9-4,8.9-8.9,8.9c-4.9,0-8.9-4-8.9-8.9C70.2,13.6,74.2,9.6,79.2,9.6z"/>
	<path class="st1" d="M74.2,84.5V68.7c0-3.5-1.6-6.8-4.5-8.9c-0.1-0.1-0.2-0.1-0.2-0.1c-0.7-1.4-2-2.5-3.6-2.9
		c1-0.3,1.9-0.8,2.8-1.3c0.8,0.3,1.7,0.4,2.6,0.4c4.2,0,7.7-3.4,7.7-7.7c0-1.3-0.3-2.6-1-3.7H81c0.7,0,1.2-0.5,1.2-1.2
		s-0.5-1.2-1.2-1.2h-2.7l1.7-1.7c0.5-0.5,0.5-1.2,0-1.7c-0.5-0.5-1.2-0.5-1.7,0l-1.7,1.7c-0.7-8.1-7.5-14.5-15.8-14.5
		c-0.7,0-1.5,0.1-2.2,0.2c1.7-2,2.8-4.6,2.8-7.5c0-6.3-5.1-11.4-11.4-11.4c-6.3,0-11.4,5.1-11.4,11.4S43.8,30,50,30
		c0.1,0,0.1,0,0.2,0c-3.2,2.9-5.3,7.1-5.3,11.8c0,0.7,0.5,1.2,1.2,1.2s1.2-0.5,1.2-1.2c0-7.4,6-13.4,13.4-13.4s13.4,6,13.4,13.4
		c0,4.1-1.8,7.7-4.7,10.2c0.5-1.2,0.8-2.5,0.8-3.9v-4.8c0-0.7-0.5-1.2-1.2-1.2s-1.2,0.5-1.2,1.2v4.8c0,3.5-2.4,6.3-5.7,7
		c-0.5,0-0.9,0.1-1.4,0.1c-0.1,0-0.3,0-0.4,0.1c-3.8-0.2-6.9-3.3-6.9-7.2v-7.9c1.5-0.3,4.3-1.1,6.7-3.5c3.4,3.5,7.7,3.6,7.8,3.7
		c0.7,0,1.2-0.5,1.2-1.2c0-0.7-0.5-1.2-1.2-1.2c-0.2,0-4.2-0.2-6.9-3.8l-1-1.3l-1,1.3c-2.8,3.7-6.8,3.8-6.9,3.8c0,0-0.1,0-0.1,0
		c0,0-0.1,0-0.1,0c0,0-0.1,0-0.1,0c0,0-0.1,0-0.1,0c0,0-0.1,0-0.1,0.1c0,0-0.1,0-0.1,0.1c0,0-0.1,0-0.1,0.1c0,0-0.1,0-0.1,0.1
		c0,0,0,0.1-0.1,0.1c0,0-0.1,0.1-0.1,0.1c0,0,0,0.1-0.1,0.1c0,0,0,0.1-0.1,0.1c0,0,0,0.1,0,0.1c0,0,0,0.1,0,0.1c0,0,0,0.1,0,0.1
		c0,0,0,0.1,0,0.1v9c0,0.4,0,0.9,0.1,1.3c-0.7-0.6-1.6-0.9-2.6-0.9H10.8c-2.4,0-4.3,1.9-4.3,4.3v22.8c0,2.4,1.9,4.3,4.3,4.3h11.3
		l-0.6,4.7h-15V93c0,0.7,0.5,1.2,1.2,1.2S9,93.7,9,93v-6.1h27.8c0,0,0,0,0,0c0,0,0,0,0,0h54.6v6.4c0,0.7,0.5,1.2,1.2,1.2
		s1.2-0.5,1.2-1.2v-8.9H74.2z M41.1,18.6c0-4.9,4-8.9,8.9-8.9c4.9,0,8.9,4,8.9,8.9c0,4.9-4,8.9-8.9,8.9
		C45.1,27.5,41.1,23.5,41.1,18.6z M71.8,68.7v15.8H49.9v-4.9c1.7-0.6,3-2.2,3-4.1v-8.9c0.9,0.6,1.9,0.9,3.1,0.9
		c1.7,0,3.3-0.8,4.3-2.1c1,1.3,2.6,2.1,4.3,2.1c2.6,0,4.8-1.8,5.3-4.2C71.1,64.9,71.8,66.7,71.8,68.7z M37.8,84.5l-0.7-4.7h4.1v4.7
		H37.8z M43.7,79.8h3.8v4.7h-3.8V79.8z M60.7,57.7c0.6,0,1.3-0.1,1.9-0.2c0.1,0,0.1,0,0.2,0v2.8c0,1.4-1.1,2.5-2.5,2.5
		c-1.4,0-2.5-1.1-2.5-2.5v-3C58.7,57.5,59.7,57.7,60.7,57.7z M57.8,64.5c-0.5,0.4-1.2,0.6-1.9,0.6c-1.7,0-3.1-1.4-3.1-3.1
		c0-1.5,1.1-2.7,2.5-3v1.2C55.3,62.1,56.3,63.6,57.8,64.5z M67.6,62.1c0,1.7-1.4,3.1-3.1,3.1c-0.7,0-1.3-0.2-1.8-0.6
		c1.5-0.9,2.5-2.5,2.5-4.3v-1.1C66.6,59.4,67.6,60.6,67.6,62.1z M76,46.1c0.3,0.7,0.5,1.4,0.5,2.1c0,2.8-2.2,5.1-5,5.2
		C73.6,51.5,75.2,49,76,46.1z M55.3,56v0.6c-0.9,0.1-1.8,0.4-2.5,0.9v-3.9C53.5,54.5,54.4,55.4,55.3,56z M10.8,77.4
		c-1,0-1.9-0.8-1.9-1.9V52.7c0-1,0.8-1.9,1.9-1.9h37.7c1,0,1.9,0.8,1.9,1.9v22.8c0,1-0.8,1.9-1.9,1.9H36.8l-1.6-11.1
		c-0.4-2.7-2.7-4.8-5.3-5c-0.2,0-0.5,0-0.7,0c-2.7,0.1-5,2.3-5.3,5.1l-1.4,11H10.8z M34.3,77.4h-9.5l1.4-10.7c0.2-1.6,1.5-2.9,3-2.9
		c0.1,0,0.3,0,0.4,0c1.5,0.1,2.8,1.3,3.1,2.9L34.3,77.4z M24.5,79.8h10.1l0.7,4.7H23.9L24.5,79.8z"/>
	<path class="st1" d="M35,57.7c0.7,0,1.2-0.5,1.2-1.2s-0.5-1.2-1.2-1.2H23.9c-0.7,0-1.2,0.5-1.2,1.2s0.5,1.2,1.2,1.2H35z"/>
	<path class="st1" d="M26.6,18.6c0-0.7-0.5-1.2-1.2-1.2h-3.2V14c0-0.7-0.5-1.2-1.2-1.2c-0.7,0-1.2,0.5-1.2,1.2v5.8h5.6
		C26,19.8,26.6,19.2,26.6,18.6z"/>
	<path class="st1" d="M52.8,14.1l-3.3,3.3h-4.2c-0.7,0-1.2,0.5-1.2,1.2c0,0.7,0.5,1.2,1.2,1.2h5.2l4-4c0.5-0.5,0.5-1.2,0-1.7
		C54.1,13.6,53.3,13.6,52.8,14.1z"/>
	<path class="st1" d="M74,19.8H78v3.7c0,0.7,0.5,1.2,1.2,1.2s1.2-0.5,1.2-1.2v-6.1H74c-0.7,0-1.2,0.5-1.2,1.2
		C72.8,19.2,73.4,19.8,74,19.8z"/>
</g>
</svg>
