<?xml version="1.0" encoding="utf-8"?>
<!-- Generator: Adobe Illustrator 24.0.1, SVG Export Plug-In . SVG Version: 6.00 Build 0)  -->
<svg version="1.1" id="Calque_1" xmlns="http://www.w3.org/2000/svg" xmlns:xlink="http://www.w3.org/1999/xlink" x="0px" y="0px"
	 viewBox="0 0 100 100" style="enable-background:new 0 0 100 100;" xml:space="preserve">
<style type="text/css">
	.st0{fill:#217D9D;}
	.st1{fill:#1D1D1B;}
</style>
<path class="st0" d="M-350.1-96.9h-154.5c-18.1,0-32.9-14.7-32.9-32.9v0c0-18.1,14.7-32.9,32.9-32.9h154.5
	c18.1,0,32.9,14.7,32.9,32.9v0C-317.2-111.7-332-96.9-350.1-96.9z"/>
<path class="st1" d="M79.2,54.2c5.9-0.2,10.7-5,10.7-11c0-6.1-4.9-11-11-11s-11,4.9-11,11c0,5.9,4.7,10.7,10.5,11
	c-4.5,0.1-8.5,2-11.4,5c-3.5-5.3-9.3-8.9-16.1-9.3c7.2-0.5,12.9-6.4,12.9-13.7c0-7.6-6.2-13.8-13.8-13.8s-13.8,6.2-13.8,13.8
	c0,7.3,5.6,13.2,12.8,13.7c-6.9,0.3-12.9,4-16.4,9.4c-2.9-3.1-6.9-5.1-11.4-5.2c5.9-0.2,10.7-5,10.7-11c0-6.1-4.9-11-11-11
	c-6.1,0-11,4.9-11,11c0,5.9,4.7,10.7,10.5,11c-8.8,0.2-15.9,7.4-15.9,16.2c0,0.7,0.6,1.3,1.3,1.3s1.3-0.6,1.3-1.3
	c0-7.5,6.1-13.7,13.7-13.7c4.3,0,8.1,2,10.6,5c-1.2,2.6-1.9,5.6-1.9,8.7c0,0.7,0.6,1.3,1.3,1.3c0.7,0,1.3-0.6,1.3-1.3
	c0-2.2,0.4-4.2,1.1-6.1c0.9,1.8,1.5,3.9,1.5,6.1c0,0.7,0.6,1.3,1.3,1.3c0.7,0,1.3-0.6,1.3-1.3c0-3.3-1-6.3-2.7-8.9
	c3.1-5.4,8.9-9,15.6-9c6.6,0,12.3,3.6,15.5,8.9c-1.8,2.6-2.8,5.7-2.8,9.1c0,0.7,0.6,1.3,1.3,1.3c0.7,0,1.3-0.6,1.3-1.3
	c0-2.3,0.6-4.5,1.6-6.4c0.8,2,1.2,4.1,1.2,6.4c0,0.7,0.6,1.3,1.3,1.3s1.3-0.6,1.3-1.3c0-3.2-0.7-6.2-2-8.8c2.5-3,6.3-4.8,10.4-4.8
	c7.5,0,13.7,6.1,13.7,13.7c0,0.7,0.6,1.3,1.3,1.3S95,71,95,70.3C95,61.6,88,54.4,79.2,54.2z M12.5,43.2c0-4.7,3.8-8.5,8.5-8.5
	c4.7,0,8.5,3.8,8.5,8.5s-3.8,8.5-8.5,8.5C16.3,51.7,12.5,47.9,12.5,43.2z M38.9,36.2c0-6.2,5-11.3,11.3-11.3c6.2,0,11.3,5,11.3,11.3
	s-5,11.3-11.3,11.3C43.9,47.4,38.9,42.4,38.9,36.2z M70.5,43.2c0-4.7,3.8-8.5,8.5-8.5s8.5,3.8,8.5,8.5s-3.8,8.5-8.5,8.5
	S70.5,47.9,70.5,43.2z"/>
</svg>
