<?xml version="1.0" encoding="utf-8"?>
<!-- Generator: Adobe Illustrator 24.0.1, SVG Export Plug-In . SVG Version: 6.00 Build 0)  -->
<svg version="1.1" id="Calque_1" xmlns="http://www.w3.org/2000/svg" xmlns:xlink="http://www.w3.org/1999/xlink" x="0px" y="0px"
	 viewBox="0 0 100 100" style="enable-background:new 0 0 100 100;" xml:space="preserve">
<style type="text/css">
	.st0{fill:#217D9D;}
</style>
<path class="st0" d="M1774.9,110.4h-154.5c-18.1,0-32.9-14.7-32.9-32.9v0c0-18.1,14.7-32.9,32.9-32.9h154.5
	c18.1,0,32.9,14.7,32.9,32.9v0C1807.7,95.7,1793,110.4,1774.9,110.4z"/>
<path class="st0" d="M-56.1,82.9L-56.1,82.9c18.1,0,32.9-14.7,32.9-32.9v0c0-18.1-14.7-32.9-32.9-32.9h0C-74.3,17.1-89,31.9-89,50v0
	C-89,68.1-74.3,82.9-56.1,82.9z"/>
<g>
	<path d="M28.4,50.6C28.4,50.6,28.4,50.6,28.4,50.6l15.6,0l0.1,0l0,0c0.3,0,0.6-0.2,0.8-0.4s0.3-0.6,0.3-0.9c0-0.3-0.2-0.6-0.4-0.8
		c-0.2-0.2-0.6-0.3-0.9-0.3l-15.5,0l-0.1,0l0,0c-0.7,0-1.2,0.6-1.1,1.3C27.3,50.1,27.8,50.6,28.4,50.6z M27.8,49.4L27.8,49.4
		L27.8,49.4L27.8,49.4z"/>
	<path d="M28.6,28.2C28.6,28.2,28.6,28.2,28.6,28.2h21.7c0.7,0,1.3-0.6,1.3-1.3c0-0.7-0.6-1.3-1.3-1.3H28.6c-0.7,0-1.3,0.6-1.3,1.3
		c0,0.4,0.1,0.7,0.4,0.9C28,28.1,28.3,28.2,28.6,28.2z"/>
	<path d="M51.5,55.1l0.1,0l0,0c0.7,0,1.3-0.7,1.3-1.4c0-0.4-0.2-0.7-0.4-0.9c-0.3-0.2-0.6-0.4-0.9-0.3H28.7c-0.7,0-1.3,0.6-1.3,1.3
		c0,0.7,0.6,1.3,1.3,1.3L51.5,55.1z"/>
	<path d="M52.9,45c0-0.7-0.6-1.3-1.3-1.3H28.7c-0.7,0-1.3,0.6-1.3,1.3c0,0.7,0.6,1.3,1.3,1.3h22.8C52.3,46.3,52.9,45.7,52.9,45z"/>
	<path d="M61,67.3C61,67.3,61,67.3,61,67.3H29.1c-0.8,0-1.4,0.6-1.4,1.4c0,0.4,0.1,0.8,0.4,1.1c0.3,0.3,0.6,0.5,1.1,0.5H61
		c0.8,0,1.5-0.7,1.5-1.5v0c0-0.4-0.2-0.8-0.4-1C61.8,67.4,61.4,67.3,61,67.3z"/>
	<path d="M61,61.9H29.1c-0.8,0-1.4,0.6-1.4,1.4c0,0.4,0.1,0.8,0.4,1.1c0.3,0.3,0.6,0.5,1.1,0.5H61c0.8,0,1.5-0.7,1.5-1.5v0
		C62.5,62.6,61.8,61.9,61,61.9z"/>
	<path d="M61,29.8C61,29.8,61,29.8,61,29.8H29.1c-0.8,0-1.4,0.6-1.4,1.4c0,0.4,0.1,0.8,0.4,1.1c0.3,0.3,0.6,0.5,1.1,0.5H61
		c0.8,0,1.5-0.7,1.5-1.5v0C62.5,30.5,61.8,29.8,61,29.8z"/>
	<path d="M29.2,23.2H61c0.8,0,1.5-0.7,1.5-1.5v0c0-0.8-0.7-1.5-1.5-1.5H29.1c-0.8,0-1.4,0.6-1.4,1.4c0,0.4,0.1,0.8,0.4,1.1
		C28.4,23,28.8,23.2,29.2,23.2z"/>
	<path d="M76.6,15.5c-1.2-2.7-4-4.6-7-4.6c0,0,0,0,0,0H24.4c0,0,0,0-0.1,0c-2,0-3.9,0.8-5.3,2.2c-1.4,1.4-2.2,3.3-2.3,5.3v56.9
		c0,3.6,2.7,6.7,6.2,7.4c0.3,3.8,3.6,6.9,7.5,6.9c0,0,0,0,0.1,0h45.3c0,0,0,0,0,0c4.1,0,7.5-3.4,7.6-7.5V23
		C83.4,19.1,80.4,15.9,76.6,15.5z M69.6,82.8C69.7,82.8,69.7,82.8,69.6,82.8c4.1,0,7.5-3.3,7.6-7.5V18.8c1.8,0.6,3,2.2,3,4.2l0,59.1
		c0,2.4-2,4.4-4.5,4.4c0,0,0,0,0,0H30.5c0,0,0,0,0,0c-2.2,0-4-1.6-4.4-3.6H69.6z M24.3,14.1C24.3,14.1,24.3,14.1,24.3,14.1h45.3
		c0,0,0,0,0,0c1.6,0,3.1,0.9,3.9,2.2c0.3,0.5,0.5,1.1,0.5,1.8c0,0.1,0,0.2,0,0.4v56.9c0,2.4-2,4.4-4.4,4.4c0,0,0,0,0,0H24.4
		c-0.3,0-0.5,0-0.8-0.1c-2.1-0.4-3.7-2.2-3.7-4.3V18.5C19.9,16,21.9,14.1,24.3,14.1z"/>
</g>
</svg>
