<?xml version="1.0" encoding="utf-8"?>
<!-- Generator: Adobe Illustrator 24.0.1, SVG Export Plug-In . SVG Version: 6.00 Build 0)  -->
<svg version="1.1" id="Calque_1" xmlns="http://www.w3.org/2000/svg" xmlns:xlink="http://www.w3.org/1999/xlink" x="0px" y="0px"
	 viewBox="0 0 100 100" style="enable-background:new 0 0 100 100;" xml:space="preserve">
<style type="text/css">
	.st0{fill:#217D9D;}
	.st1{fill:#1D1D1B;}
</style>
<path class="st0" d="M1774.9,110.4h-154.5c-18.1,0-32.9-14.7-32.9-32.9v0c0-18.1,14.7-32.9,32.9-32.9h154.5
	c18.1,0,32.9,14.7,32.9,32.9v0C1807.7,95.7,1793,110.4,1774.9,110.4z"/>
<path class="st0" d="M-56.1,82.9L-56.1,82.9c18.1,0,32.9-14.7,32.9-32.9v0c0-18.1-14.7-32.9-32.9-32.9h0C-74.3,17.1-89,31.9-89,50v0
	C-89,68.1-74.3,82.9-56.1,82.9z"/>
<g>
	<path class="st1" d="M94.5,54.4c-0.9-1.2-2.1-2-3.6-2.2c-0.8-0.1-1.7-0.1-2.5,0.2c-0.4-0.6-0.9-1.2-1.5-1.6
		c-2.5-1.8-5.9-1.2-7.6,1.3l-8.6,12l-2.7-0.2c0.8-0.9,1.3-2.1,1.4-3.3c0.2-3.1-1.9-5.7-4.9-6.2l-19.1-3.1c-3.3-0.5-6.6,0.2-9.4,2.1
		l-8.4,5.9l-0.4-0.5c-1.3-1.8-3.7-2.2-5.5-0.9L7.9,67.7C6.2,69,5.8,71.4,7,73.2L21.3,93c0.8,1.1,2,1.6,3.2,1.6
		c0.8,0,1.6-0.2,2.3-0.7L40.5,84l0,0c1.8-1.3,2.2-3.7,0.9-5.5l-0.1-0.2l3.4-2.3c0.8-0.5,1.7-0.8,2.6-0.8h25.5c1.3,0,2.6-0.4,3.7-1.2
		l16.7-12c1.2-0.9,2-2.1,2.2-3.6C95.7,57,95.4,55.6,94.5,54.4z M81.3,53.4c0.5-0.7,1.2-1.1,2-1.2c0.8-0.1,1.6,0.1,2.3,0.5
		c0.3,0.2,0.6,0.5,0.8,0.8L75.9,61L81.3,53.4z M25.3,91.9c-0.7,0.5-1.6,0.3-2.1-0.3L9,71.8c-0.5-0.7-0.3-1.6,0.3-2.1l9.3-6.7
		l16,22.3L25.3,91.9z M39.1,82l-2.6,1.9l-16-22.3l2.6-1.9c0.3-0.2,0.6-0.3,0.9-0.3c0.5,0,0.9,0.2,1.2,0.6l14.2,19.8
		C40,80.6,39.8,81.5,39.1,82z M91.9,60.1l-16.7,12c-0.7,0.5-1.5,0.7-2.3,0.7H47.3c-1.4,0-2.7,0.4-3.9,1.2l-3.5,2.3L29,61.2l8.4-5.9
		c2.2-1.6,4.9-2.2,7.6-1.7l19.1,3.1c1.8,0.3,3,1.9,2.9,3.6c-0.1,1.8-1.7,3.3-3.6,3.2l-4.6-0.3L40,61.8c-0.7-0.1-1.2,0.4-1.3,1.1
		c0,0.7,0.4,1.2,1.1,1.3l15.8,1.2c0,0,0,0,0,0l3.3,0.2l4.3,0.3c0.1,0,0.1,0,0.2,0l8.6,0.6l0,0c0.2,0,0.5-0.1,0.7-0.2l15.6-11.2
		c1.4-1,3.3-0.7,4.3,0.7C93.5,57.2,93.2,59.1,91.9,60.1z"/>
	<path class="st1" d="M58.9,29.3c1.9,0.2,3.3,0.7,3.3,2.1c0,1.5-1.6,2.1-3.2,2.1c-1.4,0-2.7-0.4-3.5-1.4c-0.4-0.5-1-0.6-1.5-0.3h0
		c-0.7,0.4-0.9,1.3-0.4,1.9c1,1.3,2.5,2,4.3,2.1v3.9c0,0.7,0.5,1.2,1.2,1.2c0.7,0,1.2-0.5,1.2-1.2v-3.9c2.6-0.3,4.6-1.7,4.6-4.4
		c0-3.4-2.7-4.1-5.7-4.5c-1.7-0.2-3.1-0.5-3.1-1.8c0-1,0.9-1.9,2.9-1.9c1.1,0,2.2,0.4,2.8,1c0.4,0.3,0.9,0.4,1.3,0.2l0.1,0
		c0.7-0.4,0.9-1.4,0.3-1.9c-0.9-0.8-2-1.2-3.2-1.4v-3.7c0-0.7-0.5-1.2-1.2-1.2c-0.7,0-1.2,0.5-1.2,1.2V21c-2.3,0.3-4.4,1.5-4.4,4
		C53.3,28.2,56,29,58.9,29.3z"/>
	<polygon class="st1" points="42.4,7.5 42.4,7.5 42.4,7.5 	"/>
	<path class="st1" d="M40.1,25c-0.2,1.2-0.3,2.4-0.3,3.6c0,10.5,8.5,19,19,19s19-8.5,19-19s-8.5-19-19-19c-2.5,0-5,0.5-7.3,1.5
		l-6.4-3.5c-0.9-0.5-1.9-0.5-2.7,0L35.9,11c-0.7,0.4-1,1.1-1,1.8C35,14.8,35.6,20.9,40.1,25z M75.5,28.6c0,9.2-7.5,16.6-16.6,16.6
		s-16.6-7.5-16.6-16.6c0-0.7,0-1.3,0.1-2c0.2,0.1,0.5,0.3,0.7,0.4c0.2,0.1,0.5,0.2,0.7,0.2s0.5-0.1,0.8-0.2
		c6.9-3.6,7.9-11.2,8.1-13.8c2-0.8,4.1-1.2,6.2-1.2C68,11.9,75.5,19.4,75.5,28.6z M43.6,9.6L43.6,9.6c0.1-0.1,0.3-0.1,0.4,0l6.2,3.4
		c-0.4,7.3-4.6,10.6-6.4,11.6c-1.8-1.1-6-4.3-6.4-11.6L43.6,9.6z"/>
	<path class="st1" d="M48,15.1c0.5-0.5,0.5-1.2,0-1.7c-0.5-0.5-1.2-0.5-1.7,0l-3.2,3.2l-1-1c-0.5-0.5-1.2-0.5-1.7,0
		c-0.5,0.5-0.5,1.2,0,1.7l2.7,2.7L48,15.1z"/>
</g>
</svg>
