<?xml version="1.0" encoding="utf-8"?>
<!-- Generator: Adobe Illustrator 24.0.1, SVG Export Plug-In . SVG Version: 6.00 Build 0)  -->
<svg version="1.1" id="Calque_1" xmlns="http://www.w3.org/2000/svg" xmlns:xlink="http://www.w3.org/1999/xlink" x="0px" y="0px"
	 viewBox="0 0 100 100" style="enable-background:new 0 0 100 100;" xml:space="preserve">
<style type="text/css">
	.st0{fill:#217D9D;}
</style>
<path class="st0" d="M1774.9,110.4h-154.5c-18.1,0-32.9-14.7-32.9-32.9v0c0-18.1,14.7-32.9,32.9-32.9h154.5
	c18.1,0,32.9,14.7,32.9,32.9v0C1807.7,95.7,1793,110.4,1774.9,110.4z"/>
<path class="st0" d="M-56.1,82.9L-56.1,82.9c18.1,0,32.9-14.7,32.9-32.9v0c0-18.1-14.7-32.9-32.9-32.9h0C-74.3,17.1-89,31.9-89,50v0
	C-89,68.1-74.3,82.9-56.1,82.9z"/>
<g>
	<path d="M50,7.3C26.4,7.3,7.3,26.4,7.3,50S26.4,92.7,50,92.7S92.7,73.6,92.7,50S73.6,7.3,50,7.3z M50,90.2
		c-22.1,0-40.2-18-40.2-40.2c0-22.1,18-40.2,40.2-40.2c22.1,0,40.2,18,40.2,40.2C90.2,72.1,72.1,90.2,50,90.2z"/>
	<path d="M49.8,69.1c-3.5,0-6.3,2.8-6.3,6.3c0,3.5,2.8,6.3,6.3,6.3s6.3-2.8,6.3-6.3C56.1,72,53.3,69.1,49.8,69.1z M49.8,79.2
		c-2.1,0-3.8-1.7-3.8-3.8c0-2.1,1.7-3.8,3.8-3.8c2.1,0,3.8,1.7,3.8,3.8C53.5,77.5,51.9,79.2,49.8,79.2z"/>
	<path d="M50,40c-0.8,0-1.5,0.5-1.7,1.3l-4.9,17.5V59c0,3.5,2.8,6.3,6.3,6.3s6.3-2.8,6.3-6.3v-0.2l-4.4-17.5
		C51.5,40.5,50.8,40,50,40z M49.8,62.7c-2,0-3.7-1.6-3.8-3.6L49.9,45l3.6,14.1C53.5,61.1,51.8,62.7,49.8,62.7z"/>
	<path d="M49.9,17.6c-0.1,0-0.2,0-0.2,0c0,0,0,0,0,0c0,0,0,0,0,0c-8.8,0.1-16.8,3.7-22.5,9.5c0,0-0.1,0-0.1,0.1c0,0-0.1,0.1-0.1,0.1
		c-5.7,5.8-9.1,13.7-9.1,22.4c0,8.8,3.5,17.1,9.9,23.2c0.5,0.5,1.3,0.5,1.8,0c0,0,0,0,0,0l9.2-9.2c0.5-0.5,0.5-1.3,0-1.8
		c-0.5-0.5-1.3-0.5-1.8,0l-8.3,8.3c-4.9-5.1-7.8-11.7-8.2-18.8h11.8c0.7,0,1.3-0.6,1.3-1.3c0-0.7-0.6-1.3-1.3-1.3H20.4
		c0.2-7.3,3-13.9,7.6-18.9l8.3,8.3c0.2,0.2,0.6,0.4,0.9,0.4c0.3,0,0.7-0.1,0.9-0.4c0.5-0.5,0.5-1.3,0-1.8l-8.3-8.3
		c4.9-4.6,11.4-7.6,18.6-7.9v11.7c0,0.7,0.6,1.3,1.3,1.3c0.7,0,1.3-0.6,1.3-1.3V20.1c7.4,0.3,14,3.2,19.1,7.9l-8.3,8.3
		c-0.5,0.5-0.5,1.3,0,1.8c0.2,0.2,0.6,0.4,0.9,0.4s0.7-0.1,0.9-0.4l8.3-8.3c4.6,5,7.4,11.7,7.6,19H67.6c-0.7,0-1.3,0.6-1.3,1.3
		c0,0.7,0.6,1.3,1.3,1.3h11.9c-0.4,7-3.2,13.6-8.1,18.7L63,61.8c-0.5-0.5-1.3-0.5-1.8,0c-0.5,0.5-0.5,1.3,0,1.8l9.2,9.2l0.8,0.8
		l0.9-0.7l0.1-0.1c6.3-6.1,9.8-14.3,9.8-23.1C82,32,67.6,17.6,49.9,17.6z"/>
</g>
</svg>
