<svg xmlns="http://www.w3.org/2000/svg" width="85.435" height="95.436" viewBox="0 0 85.435 95.436">
  <g id="Group_3" data-name="Group 3" transform="translate(-233.676 -23.424)">
    <g id="Group_1" data-name="Group 1">
      <path id="Path_1" data-name="Path 1" d="M255.434,74.343a5.283,5.283,0,0,0,5.259,4.882h44.239V34.986a5.283,5.283,0,0,0-4.989-5.265V74.343Z" fill="none"/>
      <path id="Path_2" data-name="Path 2" d="M287.8,58.868H264.173V52.541H283.1a3.739,3.739,0,0,0,3.774-3.414,3.658,3.658,0,0,0-3.649-3.9H260.515a3.657,3.657,0,0,0-3.657,3.657V62.525h0a3.657,3.657,0,0,0,3.657,3.658H287.8a3.657,3.657,0,0,0,3.657-3.658h0A3.657,3.657,0,0,0,287.8,58.868Z" fill="none"/>
      <path id="Path_3" data-name="Path 3" d="M287.8,31.584H260.515a3.657,3.657,0,0,0,0,7.315H287.8a3.657,3.657,0,0,0,0-7.315Z" fill="none"/>
      <path id="Path_4" data-name="Path 4" d="M299.839,28.315a5.978,5.978,0,0,0-5.876-4.891H255a5.98,5.98,0,0,0-5.98,5.98V68.363a5.975,5.975,0,0,0,5.005,5.893,5.911,5.911,0,0,0,.975.087h44.939V29.4A6.018,6.018,0,0,0,299.839,28.315Zm-8.383,34.21a3.657,3.657,0,0,1-3.657,3.658H260.515a3.657,3.657,0,0,1-3.657-3.658h0V48.883a3.657,3.657,0,0,1,3.657-3.657h22.713a3.658,3.658,0,0,1,3.649,3.9,3.739,3.739,0,0,1-3.774,3.414h-18.93v6.327H287.8a3.657,3.657,0,0,1,3.657,3.657ZM287.8,38.9H260.515a3.657,3.657,0,0,1,0-7.315H287.8a3.657,3.657,0,0,1,0,7.315Z" fill="#fff"/>
    </g>
    <g id="Group_2" data-name="Group 2">
      <path id="Path_5" data-name="Path 5" d="M249.4,98.311H238.512v5.862h10.03a2.39,2.39,0,0,1,1.653.5,1.691,1.691,0,0,1,.545,1.311,1.753,1.753,0,0,1-.537,1.327,2.334,2.334,0,0,1-1.661.513h-10.03v6.79h11.267a2.469,2.469,0,0,1,1.718.529,1.819,1.819,0,0,1,.578,1.409,1.778,1.778,0,0,1-.578,1.375,2.465,2.465,0,0,1-1.718.53h-13.14a2.532,2.532,0,0,1-2.963-2.964V97.546a4.031,4.031,0,0,1,.309-1.7,1.923,1.923,0,0,1,.969-.961,4.086,4.086,0,0,1,1.685-.3H249.4a2.481,2.481,0,0,1,1.718.513,1.736,1.736,0,0,1,.561,1.344,1.753,1.753,0,0,1-.561,1.359A2.481,2.481,0,0,1,249.4,98.311Z" fill="#fff"/>
      <path id="Path_6" data-name="Path 6" d="M255.609,116.157V96.878a3,3,0,0,1,.594-2.019,2.016,2.016,0,0,1,1.6-.684,2.1,2.1,0,0,1,1.628.676,2.909,2.909,0,0,1,.619,2.027v19.279a2.886,2.886,0,0,1-.627,2.027,2.111,2.111,0,0,1-1.62.676,2.011,2.011,0,0,1-1.588-.7A2.958,2.958,0,0,1,255.609,116.157Z" fill="#fff"/>
      <path id="Path_7" data-name="Path 7" d="M270.491,111.744h-5.145a2.6,2.6,0,0,1-1.783-.545,1.8,1.8,0,0,1-.611-1.409,1.845,1.845,0,0,1,.594-1.425,2.59,2.59,0,0,1,1.8-.545h5.145a2.588,2.588,0,0,1,1.8.545,1.994,1.994,0,0,1,.008,2.834A2.581,2.581,0,0,1,270.491,111.744Z" fill="#fff"/>
      <path id="Path_8" data-name="Path 8" d="M279.854,96.715v6.79a10.285,10.285,0,0,1,2.556-1.994,6.8,6.8,0,0,1,3.224-.693,7.142,7.142,0,0,1,3.884,1.051,6.9,6.9,0,0,1,2.588,3.045,11.2,11.2,0,0,1,.92,4.73,12.707,12.707,0,0,1-.512,3.7,8.8,8.8,0,0,1-1.49,2.923,6.725,6.725,0,0,1-2.37,1.913,6.937,6.937,0,0,1-3.069.676,7.354,7.354,0,0,1-1.929-.245,5.621,5.621,0,0,1-1.539-.643,7.025,7.025,0,0,1-1.083-.822q-.447-.423-1.18-1.27v.44a2.679,2.679,0,0,1-.6,1.9,2.009,2.009,0,0,1-1.53.643,1.9,1.9,0,0,1-1.506-.643,2.805,2.805,0,0,1-.562-1.9V96.911a3.255,3.255,0,0,1,.545-2.044,1.831,1.831,0,0,1,1.523-.692,1.946,1.946,0,0,1,1.579.66A2.845,2.845,0,0,1,279.854,96.715Zm.212,13.206A6.119,6.119,0,0,0,281.278,114a3.979,3.979,0,0,0,3.184,1.425,3.655,3.655,0,0,0,2.89-1.457,6.365,6.365,0,0,0,1.213-4.177,8.179,8.179,0,0,0-.505-3.028,4.39,4.39,0,0,0-1.433-1.962,3.519,3.519,0,0,0-2.165-.693,3.863,3.863,0,0,0-2.264.693,4.6,4.6,0,0,0-1.563,2A7.787,7.787,0,0,0,280.066,109.921Z" fill="#fff"/>
      <path id="Path_9" data-name="Path 9" d="M298.839,98.718a2.346,2.346,0,0,1-1.587-.57,2.21,2.21,0,0,1,.016-3.167,2.27,2.27,0,0,1,1.571-.611,2.33,2.33,0,0,1,1.531.554,1.974,1.974,0,0,1,.668,1.612,2.034,2.034,0,0,1-.652,1.6A2.255,2.255,0,0,1,298.839,98.718Zm2.2,4.592v12.847a2.866,2.866,0,0,1-.636,2.019,2.1,2.1,0,0,1-1.611.684,2.009,2.009,0,0,1-1.588-.7,2.958,2.958,0,0,1-.611-2V103.44a2.858,2.858,0,0,1,.611-1.987,2.051,2.051,0,0,1,1.588-.667,2.126,2.126,0,0,1,1.611.667A2.585,2.585,0,0,1,301.038,103.31Z" fill="#fff"/>
      <path id="Path_10" data-name="Path 10" d="M305.629,116.157V96.878a3,3,0,0,1,.594-2.019,2.018,2.018,0,0,1,1.6-.684,2.1,2.1,0,0,1,1.629.676,2.914,2.914,0,0,1,.618,2.027v19.279a2.891,2.891,0,0,1-.626,2.027,2.112,2.112,0,0,1-1.621.676,2.009,2.009,0,0,1-1.587-.7A2.958,2.958,0,0,1,305.629,116.157Z" fill="#fff"/>
      <path id="Path_11" data-name="Path 11" d="M314.666,116.157V96.878a3,3,0,0,1,.594-2.019,2.016,2.016,0,0,1,1.6-.684,2.1,2.1,0,0,1,1.629.676,2.914,2.914,0,0,1,.618,2.027v19.279a2.886,2.886,0,0,1-.627,2.027,2.111,2.111,0,0,1-1.62.676,2.009,2.009,0,0,1-1.587-.7A2.958,2.958,0,0,1,314.666,116.157Z" fill="#fff"/>
    </g>
  </g>
</svg>
