<svg xmlns="http://www.w3.org/2000/svg" width="55.908" height="55.801" viewBox="0 0 55.908 55.801">
  <g id="Group_1" data-name="Group 1" transform="translate(-249.024 -23.424)">
    <path id="Path_1" data-name="Path 1" d="M255.434,74.343a5.283,5.283,0,0,0,5.259,4.882h44.239V34.986a5.283,5.283,0,0,0-4.989-5.265V74.343Z" fill="none"/>
    <path id="Path_2" data-name="Path 2" d="M287.8,58.868H264.173V52.541H283.1a3.739,3.739,0,0,0,3.774-3.414,3.658,3.658,0,0,0-3.649-3.9H260.515a3.657,3.657,0,0,0-3.657,3.657V62.525h0a3.657,3.657,0,0,0,3.657,3.658H287.8a3.657,3.657,0,0,0,3.657-3.658h0A3.657,3.657,0,0,0,287.8,58.868Z" fill="none"/>
    <path id="Path_3" data-name="Path 3" d="M287.8,31.584H260.515a3.657,3.657,0,0,0,0,7.315H287.8a3.657,3.657,0,0,0,0-7.315Z" fill="none"/>
    <path id="Path_4" data-name="Path 4" d="M299.839,28.315a5.978,5.978,0,0,0-5.876-4.891H255a5.98,5.98,0,0,0-5.98,5.98V68.363a5.975,5.975,0,0,0,5.005,5.893,5.911,5.911,0,0,0,.975.087h44.939V29.4A6.018,6.018,0,0,0,299.839,28.315Zm-8.383,34.21a3.657,3.657,0,0,1-3.657,3.658H260.515a3.657,3.657,0,0,1-3.657-3.658h0V48.883a3.657,3.657,0,0,1,3.657-3.657h22.713a3.658,3.658,0,0,1,3.649,3.9,3.739,3.739,0,0,1-3.774,3.414h-18.93v6.327H287.8a3.657,3.657,0,0,1,3.657,3.657ZM287.8,38.9H260.515a3.657,3.657,0,0,1,0-7.315H287.8a3.657,3.657,0,0,1,0,7.315Z" fill="#fff"/>
  </g>
</svg>
