<svg xmlns="http://www.w3.org/2000/svg" width="98.049" height="138.52" viewBox="0 0 98.049 138.52">
  <g id="Group_234" data-name="Group 234" transform="translate(-112.043 -99.389)">
    <path id="Path_54" data-name="Path 54" d="M209.893,108.807a11.512,11.512,0,0,0-11.315-9.418h-75.02A11.514,11.514,0,0,0,112.043,110.9v75.02a11.594,11.594,0,0,0,11.515,11.515h86.534V110.9A11.581,11.581,0,0,0,209.893,108.807Zm-16.142,65.875a7.043,7.043,0,0,1-7.043,7.043H134.17a7.043,7.043,0,0,1-7.043-7.043h0V148.413a7.043,7.043,0,0,1,7.043-7.043h43.736a7.043,7.043,0,0,1,7.027,7.512,7.2,7.2,0,0,1-7.269,6.574H141.213v12.183h45.495a7.043,7.043,0,0,1,7.043,7.043Zm-7.043-45.5H134.17a7.042,7.042,0,1,1,0-14.085h52.538a7.042,7.042,0,1,1,0,14.085Z" fill="#0f6b8d"/>
    <g id="Group_233" data-name="Group 233">
      <g id="Group_232" data-name="Group 232">
        <path id="Path_55" data-name="Path 55" d="M131.168,214.643H118.834v6.637H130.19a2.7,2.7,0,0,1,1.872.562,1.914,1.914,0,0,1,.617,1.484,1.984,1.984,0,0,1-.608,1.5,2.643,2.643,0,0,1-1.881.581H118.834V233.1h12.757a2.8,2.8,0,0,1,1.946.6,2.059,2.059,0,0,1,.654,1.6,2.015,2.015,0,0,1-.654,1.558,2.792,2.792,0,0,1-1.946.6H116.714a2.867,2.867,0,0,1-3.356-3.355V213.776a4.561,4.561,0,0,1,.35-1.926,2.182,2.182,0,0,1,1.1-1.088,4.62,4.62,0,0,1,1.909-.341h14.454a2.807,2.807,0,0,1,1.945.581,1.962,1.962,0,0,1,.635,1.521,1.983,1.983,0,0,1-.635,1.539A2.812,2.812,0,0,1,131.168,214.643Z" fill="#0f6b8d"/>
        <path id="Path_56" data-name="Path 56" d="M138.192,234.849V213.02a3.4,3.4,0,0,1,.672-2.286,2.285,2.285,0,0,1,1.817-.774,2.38,2.38,0,0,1,1.843.765,3.3,3.3,0,0,1,.7,2.295v21.829a3.27,3.27,0,0,1-.71,2.295,2.389,2.389,0,0,1-1.834.765,2.272,2.272,0,0,1-1.8-.793A3.344,3.344,0,0,1,138.192,234.849Z" fill="#0f6b8d"/>
        <path id="Path_57" data-name="Path 57" d="M155.042,229.853h-5.826a2.935,2.935,0,0,1-2.018-.618,2.04,2.04,0,0,1-.692-1.6,2.091,2.091,0,0,1,.673-1.613,2.927,2.927,0,0,1,2.037-.617h5.826a2.925,2.925,0,0,1,2.037.617,2.259,2.259,0,0,1,.009,3.208A2.918,2.918,0,0,1,155.042,229.853Z" fill="#0f6b8d"/>
        <path id="Path_58" data-name="Path 58" d="M165.643,212.836v7.688a11.656,11.656,0,0,1,2.895-2.258,7.7,7.7,0,0,1,3.65-.784,8.08,8.08,0,0,1,4.4,1.189,7.805,7.805,0,0,1,2.931,3.448,12.682,12.682,0,0,1,1.042,5.355,14.355,14.355,0,0,1-.581,4.194,9.938,9.938,0,0,1-1.687,3.31,7.614,7.614,0,0,1-2.682,2.166,7.855,7.855,0,0,1-3.475.765,8.315,8.315,0,0,1-2.185-.277,6.365,6.365,0,0,1-1.742-.728,7.822,7.822,0,0,1-1.226-.931q-.507-.479-1.337-1.438v.5a3.038,3.038,0,0,1-.682,2.148,2.273,2.273,0,0,1-1.733.728,2.151,2.151,0,0,1-1.705-.728,3.174,3.174,0,0,1-.636-2.148V213.057a3.68,3.68,0,0,1,.617-2.313,2.069,2.069,0,0,1,1.724-.784,2.2,2.2,0,0,1,1.788.747A3.221,3.221,0,0,1,165.643,212.836Zm.24,14.952a6.926,6.926,0,0,0,1.373,4.618,4.5,4.5,0,0,0,3.6,1.613,4.137,4.137,0,0,0,3.272-1.65,7.2,7.2,0,0,0,1.373-4.729,9.277,9.277,0,0,0-.571-3.429,4.985,4.985,0,0,0-1.622-2.221,3.989,3.989,0,0,0-2.452-.784,4.371,4.371,0,0,0-2.563.784,5.2,5.2,0,0,0-1.77,2.267A8.821,8.821,0,0,0,165.883,227.788Z" fill="#0f6b8d"/>
        <path id="Path_59" data-name="Path 59" d="M187.14,215.1a2.654,2.654,0,0,1-1.8-.646,2.5,2.5,0,0,1,.019-3.585,2.57,2.57,0,0,1,1.779-.692,2.638,2.638,0,0,1,1.733.627,2.235,2.235,0,0,1,.756,1.825,2.3,2.3,0,0,1-.738,1.816A2.55,2.55,0,0,1,187.14,215.1Zm2.489,5.2v14.547a3.246,3.246,0,0,1-.72,2.286,2.381,2.381,0,0,1-1.825.774,2.271,2.271,0,0,1-1.8-.793,3.344,3.344,0,0,1-.692-2.267v-14.4a3.23,3.23,0,0,1,.692-2.249,2.323,2.323,0,0,1,1.8-.756,2.408,2.408,0,0,1,1.825.756A2.923,2.923,0,0,1,189.629,220.3Z" fill="#0f6b8d"/>
        <path id="Path_60" data-name="Path 60" d="M194.827,234.849V213.02a3.4,3.4,0,0,1,.673-2.286,2.284,2.284,0,0,1,1.816-.774,2.382,2.382,0,0,1,1.844.765,3.3,3.3,0,0,1,.7,2.295v21.829a3.27,3.27,0,0,1-.709,2.295,2.389,2.389,0,0,1-1.835.765,2.271,2.271,0,0,1-1.8-.793A3.344,3.344,0,0,1,194.827,234.849Z" fill="#0f6b8d"/>
        <path id="Path_61" data-name="Path 61" d="M205.059,234.849V213.02a3.4,3.4,0,0,1,.673-2.286,2.284,2.284,0,0,1,1.816-.774,2.382,2.382,0,0,1,1.844.765,3.3,3.3,0,0,1,.7,2.295v21.829a3.27,3.27,0,0,1-.709,2.295,2.389,2.389,0,0,1-1.835.765,2.271,2.271,0,0,1-1.8-.793A3.344,3.344,0,0,1,205.059,234.849Z" fill="#0f6b8d"/>
      </g>
    </g>
  </g>
</svg>
