<?xml version="1.0" encoding="utf-8"?>
<!-- Generator: Adobe Illustrator 24.0.1, SVG Export Plug-In . SVG Version: 6.00 Build 0)  -->
<svg version="1.1" id="Calque_1" xmlns="http://www.w3.org/2000/svg" xmlns:xlink="http://www.w3.org/1999/xlink" x="0px" y="0px"
	 viewBox="0 0 500 500" style="enable-background:new 0 0 500 500;" xml:space="preserve">
<style type="text/css">
	.st0{fill:#217D9D;}
	.st1{fill:#FFFFFF;}
</style>
<path class="st0" d="M-150.1,103.1h-154.5c-18.1,0-32.9-14.7-32.9-32.9v0c0-18.1,14.7-32.9,32.9-32.9h154.5
	c18.1,0,32.9,14.7,32.9,32.9v0C-117.2,88.3-132,103.1-150.1,103.1z"/>
<path class="st1" d="M367.2,278.5c23.6-0.6,42.6-20,42.6-43.7c0-24.1-19.6-43.8-43.8-43.8s-43.8,19.6-43.8,43.8
	c0,23.6,18.7,42.8,42.1,43.7c-17.9,0.3-34.1,8-45.6,20.1c-13.8-21.2-37.2-35.6-64.1-37c28.6-1.8,51.3-25.7,51.3-54.7
	c0-30.2-24.6-54.8-54.8-54.8c-30.2,0-54.8,24.6-54.8,54.8c0,28.9,22.5,52.7,50.9,54.7c-27.5,1.1-51.5,15.8-65.4,37.6
	c-11.4-12.3-27.6-20.1-45.5-20.6c23.6-0.6,42.6-20,42.6-43.7c0-24.1-19.6-43.8-43.8-43.8c-24.1,0-43.8,19.6-43.8,43.8
	c0,23.6,18.7,42.8,42.1,43.7C98.3,279.1,70,307.8,70,343c0,2.8,2.2,5,5,5s5-2.2,5-5c0-30.1,24.5-54.5,54.5-54.5
	c16.9,0,32.1,7.8,42.1,19.9c-4.9,10.5-7.7,22.2-7.7,34.6c0,2.8,2.2,5,5,5s5-2.2,5-5c0-8.6,1.5-16.8,4.3-24.4
	c3.7,7.4,5.8,15.7,5.8,24.4c0,2.8,2.2,5,5,5s5-2.2,5-5c0-13.1-3.9-25.3-10.7-35.5c12.3-21.5,35.5-36.1,62.1-36.1
	c26.2,0,49.2,14.2,61.7,35.4c-7,10.3-11.1,22.8-11.1,36.2c0,2.8,2.2,5,5,5s5-2.2,5-5c0-9.2,2.3-17.8,6.3-25.4
	c3,7.9,4.7,16.4,4.7,25.4c0,2.8,2.2,5,5,5s5-2.2,5-5c0-12.6-2.9-24.6-8-35.2c10-11.8,24.9-19.3,41.6-19.3
	c30.1,0,54.5,24.5,54.5,54.5c0,2.8,2.2,5,5,5s5-2.2,5-5C430,308,402,279.4,367.2,278.5z M101.3,234.8c0-18.6,15.1-33.8,33.8-33.8
	s33.8,15.1,33.8,33.8s-15.1,33.8-33.8,33.8S101.3,253.4,101.3,234.8z M206.3,206.9c0-24.7,20.1-44.8,44.8-44.8
	c24.7,0,44.8,20.1,44.8,44.8s-20.1,44.8-44.8,44.8C226.4,251.7,206.3,231.6,206.3,206.9z M332.3,234.8c0-18.6,15.1-33.8,33.8-33.8
	s33.8,15.1,33.8,33.8s-15.1,33.8-33.8,33.8S332.3,253.4,332.3,234.8z"/>
</svg>
