<?xml version="1.0" encoding="utf-8"?>
<!-- Generator: Adobe Illustrator 24.0.1, SVG Export Plug-In . SVG Version: 6.00 Build 0)  -->
<svg version="1.1" id="Calque_1" xmlns="http://www.w3.org/2000/svg" xmlns:xlink="http://www.w3.org/1999/xlink" x="0px" y="0px"
	 viewBox="0 0 100 100" style="enable-background:new 0 0 100 100;" xml:space="preserve">
<style type="text/css">
	.st0{fill:#217D9D;}
	.st1{fill:#FFFFFF;}
</style>
<path class="st0" d="M1774.9,110.4h-154.5c-18.1,0-32.9-14.7-32.9-32.9v0c0-18.1,14.7-32.9,32.9-32.9h154.5
	c18.1,0,32.9,14.7,32.9,32.9v0C1807.7,95.7,1793,110.4,1774.9,110.4z"/>
<path class="st0" d="M-56.1,82.9L-56.1,82.9c18.1,0,32.9-14.7,32.9-32.9v0c0-18.1-14.7-32.9-32.9-32.9h0C-74.3,17.1-89,31.9-89,50v0
	C-89,68.1-74.3,82.9-56.1,82.9z"/>
<g>
	<path class="st1" d="M34.7,55.6C34.8,55.6,34.8,55.6,34.7,55.6l12.9,0l0.1,0l0,0c0.3,0,0.5-0.1,0.7-0.3c0.2-0.2,0.3-0.5,0.2-0.7
		c0-0.5-0.5-0.9-1-0.9l-12.8,0l-0.1,0l0,0c-0.3,0-0.5,0.1-0.7,0.3c-0.2,0.2-0.3,0.5-0.2,0.7C33.8,55.2,34.2,55.6,34.7,55.6z
		 M48.2,54.5L48.2,54.5L48.2,54.5L48.2,54.5z"/>
	<path class="st1" d="M53.8,59.3l0.1,0l0,0c0.3,0,0.6-0.1,0.8-0.4c0.2-0.2,0.3-0.5,0.3-0.8c0-0.6-0.5-1.1-1.1-1H35
		c-0.6,0-1.1,0.5-1.1,1.1c0,0.6,0.5,1.1,1.1,1.1L53.8,59.3z"/>
	<path class="st1" d="M35,52.1h18.9c0.6,0,1.1-0.5,1.1-1.1s-0.5-1.1-1.1-1.1H35c-0.6,0-1.1,0.5-1.1,1.1S34.4,52.1,35,52.1z"/>
	<path class="st1" d="M61.7,69.3C61.7,69.3,61.7,69.3,61.7,69.3H35.4c-0.6,0-1.1,0.5-1.2,1.2c0,0.3,0.1,0.6,0.3,0.9
		c0.2,0.2,0.5,0.4,0.9,0.4h26.3c0.7,0,1.2-0.5,1.2-1.2v0c0-0.3-0.1-0.6-0.4-0.9C62.3,69.5,62,69.3,61.7,69.3z"/>
	<path class="st1" d="M61.7,64.9H35.4c-0.6,0-1.1,0.5-1.2,1.2c0,0.7,0.5,1.2,1.2,1.3h26.3c0.7,0,1.2-0.5,1.2-1.2v0
		C62.9,65.5,62.4,64.9,61.7,64.9z"/>
	<path class="st1" d="M74.6,26.6c-1-2.3-3.3-3.8-5.8-3.8c0,0,0,0,0,0H48.5c-2.7-6.2-8.9-10.6-16.1-10.6c-9.6,0-17.5,7.8-17.5,17.5
		c0,7,4.2,13.1,10.2,15.9V76c0,3,2.2,5.5,5.1,6.1c0.3,3.2,3,5.7,6.2,5.7c0,0,0,0,0.1,0h37.4c0,0,0,0,0,0c3.4,0,6.2-2.8,6.2-6.2V32.8
		C80.2,29.6,77.7,26.9,74.6,26.6z M17.5,29.7c0-8.3,6.7-15,15-15c8.3,0,15,6.7,15,15c0,8.3-6.7,15-15,15
		C24.2,44.7,17.5,38,17.5,29.7z M31.4,79.6c-0.2,0-0.4,0-0.7-0.1c-1.8-0.3-3-1.8-3-3.6V46.6c1.5,0.4,3.1,0.7,4.7,0.7
		c5.4,0,10.3-2.5,13.5-6.3h15.8c0.7,0,1.2-0.5,1.2-1.2v0c0-0.7-0.5-1.2-1.2-1.2c0,0,0,0,0,0H47.6c0.2-0.4,0.5-0.9,0.7-1.3h4.6
		c0.6,0,1.1-0.5,1.1-1.1c0-0.6-0.5-1.1-1.1-1.1h-3.7c0.2-0.6,0.3-1.3,0.5-1.9h12.1c0.7,0,1.2-0.5,1.2-1.2v0c0-0.7-0.5-1.2-1.2-1.2
		H49.9c0-0.3,0-0.5,0-0.8c0-1.5-0.2-2.9-0.6-4.3h19.4c0,0,0,0,0,0c1.3,0,2.6,0.7,3.2,1.8c0.3,0.4,0.4,0.9,0.4,1.5c0,0.1,0,0.2,0,0.3
		v47c0,2-1.7,3.6-3.7,3.6c0,0,0,0,0,0H31.4z M73.9,85.2C73.9,85.2,73.9,85.2,73.9,85.2H36.5c0,0,0,0,0,0c-1.8,0-3.3-1.3-3.6-3h35.9
		c0,0,0,0,0,0c3.4,0,6.2-2.8,6.2-6.2V29.3c1.5,0.5,2.5,1.9,2.5,3.4l0,48.8C77.6,83.6,75.9,85.2,73.9,85.2z"/>
	<path class="st1" d="M34,39.3v-2.1c0.6-0.1,1.3-0.2,1.9-0.5c0.8-0.3,1.5-0.9,2-1.6c0.5-0.7,0.7-1.5,0.7-2.3c0-0.8-0.3-1.6-0.8-2.3
		c-0.5-0.6-1.1-1-1.8-1.3c-0.6-0.3-1.3-0.5-2-0.7c-0.1-0.1-0.3-0.1-0.4-0.1c-0.1,0-0.2-0.1-0.3-0.1c-0.7-0.2-1.4-0.4-2.1-0.6
		c0,0,0,0,0,0c-0.2-0.1-0.5-0.2-0.7-0.4c-0.2-0.1-0.3-0.2-0.5-0.4c-0.3-0.3-0.5-0.8-0.5-1.3c0-0.6,0.3-1.2,0.8-1.5
		c0.3-0.2,0.5-0.3,0.9-0.4c0.4-0.1,0.9-0.2,1.3-0.2c0.5,0,1,0.1,1.4,0.2c0,0,0.1,0,0.1,0c0.3,0.1,0.6,0.3,0.9,0.5
		c0.6,0.5,0.9,1.2,1,1.9h2.6c0-0.3,0-0.6-0.1-0.9c-0.2-1-0.8-2-1.6-2.6c-0.1-0.1-0.1-0.1-0.2-0.2c-0.7-0.5-1.6-0.9-2.5-1v-2.1h-2.8
		v2.1c-0.5,0.1-1,0.2-1.5,0.4c-0.8,0.3-1.5,0.9-2,1.6c-0.5,0.6-0.7,1.4-0.7,2.1c0,0.9,0.2,1.7,0.8,2.4c0.5,0.6,1.1,1,1.8,1.3
		c0,0,0.1,0,0.1,0c0.5,0.2,1.1,0.4,1.6,0.6c0.4,0.1,0.8,0.2,1.2,0.3l0.2,0c0.6,0.2,1,0.3,1.5,0.4c0.4,0.1,0.8,0.3,1.1,0.5
		c0.6,0.3,0.9,0.9,0.9,1.5c0,0.6-0.3,1.3-0.8,1.6c-0.4,0.3-0.8,0.4-1.2,0.5c-0.4,0.1-0.7,0.1-1.1,0.1c-0.3,0-0.6,0-0.8,0
		c-0.3,0-0.6-0.1-0.9-0.2c-0.3-0.1-0.6-0.3-0.8-0.4c-0.6-0.4-1-1.1-1.1-1.9h-2.6c0,0.9,0.4,1.8,0.9,2.5c0.4,0.5,0.8,0.9,1.3,1.2
		c0.3,0.2,0.6,0.3,0.9,0.4c0.5,0.2,0.9,0.3,1.4,0.4v2.2H34z"/>
</g>
</svg>
