<?xml version="1.0" encoding="utf-8"?>
<!-- Generator: Adobe Illustrator 24.0.1, SVG Export Plug-In . SVG Version: 6.00 Build 0)  -->
<svg version="1.1" id="Calque_1" xmlns="http://www.w3.org/2000/svg" xmlns:xlink="http://www.w3.org/1999/xlink" x="0px" y="0px"
	 viewBox="0 0 100 100" style="enable-background:new 0 0 100 100;" xml:space="preserve">
<style type="text/css">
	.st0{fill:#217D9D;}
	.st1{fill:#FFFFFF;}
</style>
<path class="st0" d="M1774.9,110.4h-154.5c-18.1,0-32.9-14.7-32.9-32.9v0c0-18.1,14.7-32.9,32.9-32.9h154.5
	c18.1,0,32.9,14.7,32.9,32.9v0C1807.7,95.7,1793,110.4,1774.9,110.4z"/>
<path class="st0" d="M-56.1,82.9L-56.1,82.9c18.1,0,32.9-14.7,32.9-32.9v0c0-18.1-14.7-32.9-32.9-32.9h0C-74.3,17.1-89,31.9-89,50v0
	C-89,68.1-74.3,82.9-56.1,82.9z"/>
<g>
	<path class="st1" d="M34.8,53.1c-7,0-12.7,5.7-12.7,12.7s5.7,12.7,12.7,12.7s12.7-5.7,12.7-12.7S41.8,53.1,34.8,53.1z M34.8,76
		c-5.6,0-10.2-4.6-10.2-10.2c0-5.6,4.6-10.2,10.2-10.2S45,60.2,45,65.8C45,71.4,40.4,76,34.8,76z"/>
	<path class="st1" d="M59,58.5h-3c-0.8,0-1.5-0.5-1.8-1.2l0-0.1c-0.3-0.7-0.1-1.5,0.4-2.1l2.1-2.1c1.7-1.7,1.7-4.6,0-6.3l-3.4-3.4
		c-0.8-0.8-2-1.3-3.2-1.3c-1.2,0-2.3,0.5-3.2,1.3l-2.2,2.2c-0.5,0.5-1.3,0.7-2,0.5c-0.8-0.3-1.3-1-1.3-1.8v-2.9c0-2.5-2-4.5-4.5-4.5
		h-4.8c-2.5,0-4.5,2-4.5,4.5v2.9c0,0.8-0.5,1.5-1.3,1.8c-0.7,0.2-1.5,0.1-2-0.5l-2.2-2.2c-1.7-1.7-4.6-1.7-6.3,0l-3.4,3.4
		c-1.7,1.7-1.7,4.6,0,6.3l2.1,2.1c0.5,0.5,0.7,1.4,0.4,2.1l0,0.1c-0.3,0.7-1,1.2-1.8,1.2h-3c-2.5,0-4.5,2-4.5,4.5v4.8
		c0,2.5,2,4.5,4.5,4.5h3.2c0.8,0,1.5,0.5,1.8,1.3c0.2,0.7,0.1,1.5-0.5,2l-2.2,2.2c-1.7,1.7-1.7,4.6,0,6.3l3.4,3.4
		c0.8,0.8,2,1.3,3.2,1.3c1.2,0,2.3-0.5,3.2-1.3l2.1-2.1c0.5-0.5,1.4-0.7,2.1-0.4l0.1,0c0.7,0.3,1.2,1,1.2,1.8v3c0,2.5,2,4.5,4.5,4.5
		h4.8c2.5,0,4.5-2,4.5-4.5v-3c0-0.8,0.5-1.5,1.2-1.8l0.1-0.1c0.7-0.3,1.5-0.1,2.1,0.4l2.2,2.2c1.7,1.7,4.6,1.7,6.3,0l3.4-3.4
		c1.7-1.7,1.7-4.6,0-6.3l-2.2-2.2c-0.5-0.5-0.7-1.3-0.5-2c0.3-0.8,1-1.3,1.8-1.3h3c2.5,0,4.5-2,4.5-4.5v-4.8
		C63.5,60.5,61.5,58.5,59,58.5z M60.9,67.7c0,1.1-0.9,1.9-1.9,1.9h-3c-1.9,0-3.6,1.2-4.2,3c-0.6,1.6-0.1,3.4,1.1,4.6l2.2,2.2
		c0.7,0.7,0.7,2,0,2.7l-3.4,3.4c-0.7,0.7-2,0.7-2.7,0l-2.2-2.2c-1.3-1.3-3.2-1.7-4.9-1l-0.1,0.1c-1.7,0.7-2.8,2.3-2.8,4.2v3
		c0,1.1-0.9,1.9-1.9,1.9h-4.8c-1.1,0-1.9-0.9-1.9-1.9v-3c0-1.8-1.1-3.5-2.8-4.1l-0.1,0c-0.6-0.2-1.1-0.3-1.7-0.3
		c-1.2,0-2.3,0.5-3.2,1.3l-2.1,2.1c-0.4,0.4-0.8,0.6-1.3,0.6c-0.5,0-1-0.2-1.3-0.6l-3.4-3.4c-0.7-0.7-0.7-2,0-2.7l2.2-2.2
		c1.2-1.2,1.6-3,1.1-4.6c-0.6-1.8-2.3-3-4.2-3h-3.2c-1.1,0-1.9-0.9-1.9-1.9v-4.8c0-1.1,0.9-1.9,1.9-1.9h3c1.8,0,3.5-1.1,4.1-2.8
		l0-0.1c0.7-1.7,0.3-3.6-1-4.9l-2.1-2.1c-0.7-0.7-0.7-2,0-2.7l3.4-3.4c0.7-0.7,2-0.7,2.7,0l2.2,2.2c1.2,1.2,3,1.6,4.6,1.1
		c1.8-0.6,3-2.3,3-4.2v-2.9c0-1.1,0.9-1.9,1.9-1.9H37c1.1,0,1.9,0.9,1.9,1.9v2.9c0,1.9,1.2,3.6,3,4.2c1.6,0.6,3.4,0.1,4.6-1.1
		l2.2-2.2c0.4-0.4,0.8-0.6,1.3-0.6c0.5,0,1,0.2,1.3,0.6l3.4,3.4c0.7,0.7,0.7,2,0,2.7l-2.1,2.1c-1.3,1.3-1.7,3.2-1,4.9l0,0.1
		c0.7,1.7,2.3,2.8,4.1,2.8h3c1.1,0,1.9,0.9,1.9,1.9V67.7z"/>
	<path class="st1" d="M87.1,37H83c-1.3,0-2.4-0.7-2.8-1.9L80.1,35c-0.5-1.2-0.2-2.5,0.7-3.4l2.9-2.9c1.1-1.1,1.7-2.5,1.7-4
		s-0.6-2.9-1.7-4L79,16.1c-1.1-1.1-2.5-1.7-4-1.7c-1.5,0-2.9,0.6-4,1.7L68,19.1c-0.8,0.8-2.1,1.1-3.2,0.7c-1.2-0.4-2.1-1.6-2.1-2.9
		v-4c0-3.1-2.5-5.7-5.7-5.7h-6.6c-3.1,0-5.7,2.5-5.7,5.7v4c0,1.3-0.8,2.5-2.1,2.9c-1.1,0.4-2.4,0.1-3.2-0.7l-3.1-3.1
		c-2.2-2.2-5.8-2.2-8,0l-4.6,4.6c-1.1,1.1-1.7,2.5-1.7,4c0,1.5,0.6,2.9,1.7,4l2.9,2.9c0.5,0.5,1.3,0.5,1.8,0c0.5-0.5,0.5-1.3,0-1.8
		l-2.9-2.9c-0.6-0.6-0.9-1.4-0.9-2.2s0.3-1.6,0.9-2.2l4.6-4.6c1.2-1.2,3.2-1.2,4.4,0l3.1,3.1c1.5,1.5,3.8,2.1,5.9,1.3
		c2.3-0.8,3.8-2.9,3.8-5.3v-4c0-1.7,1.4-3.1,3.1-3.1h6.6c1.7,0,3.1,1.4,3.1,3.1v4c0,2.4,1.5,4.6,3.8,5.3c2,0.7,4.3,0.2,5.9-1.3
		l3.1-3.1c0.6-0.6,1.4-0.9,2.2-0.9s1.6,0.3,2.2,0.9l4.6,4.6c0.6,0.6,0.9,1.4,0.9,2.2s-0.3,1.6-0.9,2.2l-2.9,2.9
		c-1.6,1.6-2.1,4-1.2,6.2l0.1,0.1c0.9,2.1,2.9,3.5,5.2,3.5h4.1c1.7,0,3.1,1.4,3.1,3.1v6.6c0,1.7-1.4,3.1-3.1,3.1H83
		c-2.4,0-4.5,1.5-5.3,3.8c-0.7,2-0.2,4.3,1.3,5.9L82,65c1.2,1.2,1.2,3.2,0,4.4L77.4,74c-0.6,0.6-1.4,0.9-2.2,0.9S73.6,74.6,73,74
		l-2.9-2.9c-0.5-0.5-1.3-0.5-1.8,0c-0.5,0.5-0.5,1.3,0,1.8l2.9,2.9c1.1,1.1,2.5,1.7,4,1.7c1.5,0,2.9-0.6,4-1.7l4.6-4.6
		c2.2-2.2,2.2-5.8,0-8l-3.1-3.1c-0.8-0.8-1.1-2.1-0.7-3.2c0.4-1.2,1.6-2.1,2.9-2.1h4.1c3.1,0,5.7-2.5,5.7-5.7v-6.6
		C92.8,39.6,90.2,37,87.1,37z"/>
</g>
</svg>
