<?xml version="1.0" encoding="utf-8"?>
<!-- Generator: Adobe Illustrator 24.0.1, SVG Export Plug-In . SVG Version: 6.00 Build 0)  -->
<svg version="1.1" id="Calque_1" xmlns="http://www.w3.org/2000/svg" xmlns:xlink="http://www.w3.org/1999/xlink" x="0px" y="0px"
	 viewBox="0 0 100 100" style="enable-background:new 0 0 100 100;" xml:space="preserve">
<style type="text/css">
	.st0{fill:#247E9E;}
</style>
<g>
	<path class="st0" d="M34.5,55C34.5,55,34.5,55,34.5,55L50,55l0.1,0l0,0c0.3,0,0.6-0.2,0.8-0.4c0.2-0.2,0.3-0.5,0.3-0.9
		c0-0.7-0.7-1.1-1.3-1.1l-15.5,0l-0.1,0l0,0c-0.3,0-0.6,0.2-0.8,0.4c-0.2,0.2-0.3,0.5-0.3,0.9C33.3,54.5,33.9,55,34.5,55z
		 M33.8,53.8L33.8,53.8L33.8,53.8L33.8,53.8z"/>
	<path class="st0" d="M57.5,59.5l0.1,0l0,0c0.7,0,1.3-0.7,1.2-1.4c0-0.7-0.6-1.3-1.3-1.3c0,0,0,0-0.1,0H34.8c-0.7,0-1.3,0.6-1.3,1.3
		c0,0.7,0.6,1.3,1.3,1.3L57.5,59.5z"/>
	<path class="st0" d="M34.8,50.7h22.8c0.7,0,1.3-0.6,1.3-1.3S58.3,48,57.5,48H34.8c-0.7,0-1.3,0.6-1.3,1.3S34,50.7,34.8,50.7z"/>
	<path class="st0" d="M67,71.6C67,71.6,67,71.6,67,71.6H35.2c-0.8,0-1.3,0.6-1.4,1.4c0,0.4,0.1,0.8,0.4,1.1c0.3,0.3,0.6,0.5,1,0.5
		H67c0.8,0,1.5-0.7,1.5-1.5v0c0-0.4-0.2-0.8-0.4-1C67.7,71.7,67.4,71.6,67,71.6z"/>
	<path class="st0" d="M67,66.3H35.2c-0.8,0-1.3,0.6-1.4,1.4c0,0.4,0.1,0.8,0.4,1.1c0.3,0.3,0.6,0.5,1,0.5H67c0.8,0,1.5-0.7,1.5-1.5
		v0C68.5,66.9,67.8,66.3,67,66.3z"/>
	<path class="st0" d="M67,34.3C67,34.3,67,34.3,67,34.3H35.2c-0.8,0-1.3,0.6-1.4,1.4c0,0.4,0.1,0.8,0.4,1.1c0.3,0.3,0.6,0.5,1,0.5
		H67c0.8,0,1.5-0.7,1.5-1.5v0C68.5,34.9,67.8,34.3,67,34.3z"/>
	<path class="st0" d="M82.5,20c-1.2-2.7-3.9-4.5-6.9-4.5c0,0,0,0,0,0H49.6c-8.1-9.2-21.9-11.6-32.8-5.1c-3.7,2.2-6.8,5.3-9,9
		l-0.5,0.9l0.5,0.9c3.5,5.9,9,9.8,15,11.6v47c0,3.6,2.7,6.7,6.2,7.3c0.3,3.8,3.6,6.8,7.5,6.8c0,0,0,0,0.1,0h45.1c0,0,0,0,0,0
		c4.1,0,7.5-3.3,7.5-7.5V27.4C89.3,23.6,86.3,20.4,82.5,20z M11.3,20.2c6.9-10.4,20.9-13.3,31.3-6.4c2.5,1.7,4.7,3.9,6.4,6.4
		c-4.2,6.3-11.3,10.2-18.9,10.1v0C22.6,30.4,15.5,26.6,11.3,20.2z M30.5,84c-0.3,0-0.5,0-0.8-0.1c-2.1-0.4-3.7-2.2-3.7-4.3V33.4
		c3.7,0.6,7.6,0.4,11.4-0.7h19c0.7,0,1.3-0.6,1.3-1.3c0-0.7-0.6-1.3-1.3-1.3H43.5c0,0,0,0,0.1,0c1.1-0.7,2.2-1.5,3.2-2.3H67
		c0.8,0,1.5-0.7,1.5-1.5v0c0-0.8-0.7-1.5-1.5-1.5H49.7c1-1.2,1.9-2.4,2.7-3.7l0.5-0.9l-0.5-0.9c-0.2-0.3-0.4-0.5-0.5-0.8h23.6
		c0,0,0,0,0,0c1.6,0,3.1,0.9,3.9,2.2c0.3,0.5,0.5,1.1,0.5,1.8c0,0.1,0,0.2,0,0.4v56.7c0,2.4-2,4.4-4.4,4.4c0,0,0,0,0,0H30.5z
		 M81.7,90.7C81.7,90.7,81.7,90.7,81.7,90.7H36.6c0,0,0,0,0,0c-2.2,0-4-1.5-4.4-3.6h43.4c0,0,0,0,0,0c4.1,0,7.5-3.3,7.5-7.4V23.3
		c1.8,0.6,3,2.2,3,4.2l0,58.9C86.1,88.7,84.1,90.7,81.7,90.7z"/>
	<path class="st0" d="M38.4,19.8L38.4,19.8c0-1.9-0.7-3.8-1.9-5.3c-2.9-3.5-8.1-3.9-11.6-1c0.4-0.2,0.7-0.2,1.1-0.2c1.6,0,3,1.3,3,3
		c0,1.6-1.3,3-3,3c-1.6,0-3-1.3-3-3c0-0.2,0-0.4,0.1-0.7c-0.8,1.3-1.2,2.8-1.2,4.3c0,4.6,3.7,8.3,8.3,8.3S38.4,24.4,38.4,19.8z"/>
</g>
</svg>
