<?xml version="1.0" encoding="utf-8"?>
<!-- Generator: Adobe Illustrator 24.0.1, SVG Export Plug-In . SVG Version: 6.00 Build 0)  -->
<svg version="1.1" id="Calque_1" xmlns="http://www.w3.org/2000/svg" xmlns:xlink="http://www.w3.org/1999/xlink" x="0px" y="0px"
	 viewBox="0 0 100 100" style="enable-background:new 0 0 100 100;" xml:space="preserve">
<style type="text/css">
	.st0{fill:#247E9E;}
</style>
<g id="Ajouter-2_2_" transform="translate(1477 15)">
	<path id="Path_46_2_" class="st0" d="M-1423.6,35.4h1.8c6.5,0,13,0,19.4,0c0.6,0,1.3,0,1.9-0.1c2.7-0.6,4.5-3.2,4.1-5.9
		c-0.3-2.7-2.6-4.7-5.3-4.7c-6.8,0-13.5,0-20.3,0h-1.7v-1.9c0-6.5,0-13,0-19.4c0-0.6,0-1.3-0.2-1.9c-0.7-2.9-3.7-4.6-6.6-3.9
		c-2.4,0.6-4.1,2.7-4.1,5.2c0,6.8,0,13.6,0,20.3c0,0.5,0,1-0.1,1.6h-1.8c-6.5,0-13,0-19.6,0c-1.1,0-2.2,0.3-3.3,0.8
		c-2.1,1.2-3.1,3.7-2.4,6.1c0.7,2.3,2.7,3.9,5.1,3.9c6.8,0,13.5,0,20.3,0h1.7v1.8c0,6.6,0,13.3,0,19.9c-0.1,3,2.2,5.5,5.1,5.6
		c3,0.1,5.5-2.2,5.6-5.1c0-0.1,0-0.3,0-0.4c0-5.4,0-10.8,0-16.1C-1423.6,39.2-1423.6,37.4-1423.6,35.4z"/>
</g>
</svg>
