<?xml version="1.0" encoding="utf-8"?>
<!-- Generator: Adobe Illustrator 24.0.1, SVG Export Plug-In . SVG Version: 6.00 Build 0)  -->
<svg version="1.1" id="Calque_1" xmlns="http://www.w3.org/2000/svg" xmlns:xlink="http://www.w3.org/1999/xlink" x="0px" y="0px"
	 viewBox="0 0 100 100" style="enable-background:new 0 0 100 100;" xml:space="preserve">
<style type="text/css">
	.st0{fill:#247E9E;}
</style>
<g id="telecharger_4_" transform="translate(950 15)">
	<path id="Path_42_4_" class="st0" d="M-899.5-11.1c0.7,0.5,1.4,1,2,1.5c6.5,7,12.9,14,19.3,21c0.6,0.6,1,1.3,1.1,2
		c0.5,1.4-0.7,2.7-2.5,3.1c-0.1,0-0.2,0-0.3,0c-3.5,0-7,0-10.5,0h-1v35.6c0,2.2-1.1,3.2-3.4,3.2c-3.6,0-7.3,0-10.9,0
		c-2,0-3.2-1.1-3.2-3.1V16.7h-4.1c-2.4,0-4.7,0-7.1,0c-1.4,0.1-2.7-0.6-3-1.6c-0.5-1.1-0.3-2.3,0.7-3.3c3.6-3.9,7.2-7.8,10.7-11.7
		c2.8-3.1,5.6-6.2,8.5-9.2c0.7-0.7,1.5-1.3,2.3-1.9L-899.5-11.1z"/>
	<path id="Path_43_4_" class="st0" d="M-939,81.4c-2-0.6-3.5-2-4.1-3.6c-0.3-0.8-0.5-1.7-0.6-2.5c0-8.7,0-17.3,0-26
		c0-0.1,0-0.2,0.1-0.3h11.5v19.4h63.9V49.1h11.6v25.3c0.5,2.9-1.3,5.7-4.5,6.9c-0.1,0-0.2,0.1-0.2,0.2H-939z"/>
</g>
</svg>
