<?xml version="1.0" encoding="utf-8"?>
<!-- Generator: Adobe Illustrator 24.0.1, SVG Export Plug-In . SVG Version: 6.00 Build 0)  -->
<svg version="1.1" id="Calque_1" xmlns="http://www.w3.org/2000/svg" xmlns:xlink="http://www.w3.org/1999/xlink" x="0px" y="0px"
	 viewBox="0 0 100 100" style="enable-background:new 0 0 100 100;" xml:space="preserve">
<style type="text/css">
	.st0{fill:#247E9E;}
</style>
<g id="modifier-2_2_" transform="translate(1065.369 34.368)">
	<g id="Group_262_2_" transform="translate(-28.594 -4.676) rotate(-20)">
		<path id="Path_266_2_" class="st0" d="M-963.3-302.6l-6.1,18.3l18.2-6.1l47-46.9l-12.2-12.2L-963.3-302.6z M-962.4-291.4l2.9-8.8
			l43-43l5.9,5.9l-43,43L-962.4-291.4z"/>
		<path id="Path_267_2_" class="st0" d="M-900.6-350.9l-2.4-2.4c-2.7-2.7-7.1-2.7-9.8,0l-3.2,3.2l12.2,12.2l3.2-3.2
			C-897.8-343.8-897.8-348.1-900.6-350.9C-900.5-350.8-900.6-350.8-900.6-350.9L-900.6-350.9z M-903.7-344.2L-903.7-344.2l-5.9-5.8
			l0.1-0.1c1-1,2.5-1,3.5,0l2.4,2.4C-902.7-346.7-902.7-345.2-903.7-344.2C-903.7-344.2-903.7-344.2-903.7-344.2z"/>
	</g>
</g>
</svg>
