<?xml version="1.0" encoding="utf-8"?>
<!-- Generator: Adobe Illustrator 24.0.1, SVG Export Plug-In . SVG Version: 6.00 Build 0)  -->
<svg version="1.1" id="Calque_1" xmlns="http://www.w3.org/2000/svg" xmlns:xlink="http://www.w3.org/1999/xlink" x="0px" y="0px"
	 viewBox="0 0 100 100" style="enable-background:new 0 0 100 100;" xml:space="preserve">
<style type="text/css">
	.st0{fill:#247E9E;}
</style>
<g>
	<path class="st0" d="M26.5,50.4C26.5,50.4,26.5,50.4,26.5,50.4l16.9,0l0.1,0l0,0c0.3,0,0.7-0.2,0.9-0.4c0.2-0.3,0.3-0.6,0.3-0.9
		c0-0.3-0.2-0.7-0.4-0.9c-0.3-0.2-0.6-0.3-0.9-0.3l-16.8,0l-0.1,0l0,0c-0.7,0-1.3,0.7-1.2,1.4C25.3,49.8,25.8,50.4,26.5,50.4z
		 M25.8,49.1L25.8,49.1L25.8,49.1L25.8,49.1z"/>
	<path class="st0" d="M26.8,26.1C26.8,26.1,26.8,26.1,26.8,26.1h23.6c0.8,0,1.4-0.6,1.4-1.4s-0.6-1.4-1.4-1.4H26.8
		c-0.8,0-1.4,0.6-1.4,1.4c0,0.4,0.2,0.7,0.4,1C26,26,26.4,26.1,26.8,26.1z"/>
	<path class="st0" d="M51.5,55.3l0.1,0l0,0c0.8,0,1.4-0.7,1.4-1.5c0-0.4-0.2-0.7-0.5-1c-0.3-0.3-0.7-0.4-1-0.4H26.8
		c-0.8,0-1.5,0.7-1.5,1.4c0,0.8,0.6,1.4,1.4,1.4L51.5,55.3z"/>
	<path class="st0" d="M53,44.3c0-0.8-0.6-1.4-1.4-1.4H26.8c-0.8,0-1.4,0.6-1.4,1.4c0,0.8,0.6,1.4,1.4,1.4h24.8
		C52.4,45.7,53,45.1,53,44.3z"/>
	<path class="st0" d="M61.9,68.4C61.9,68.4,61.9,68.4,61.9,68.4H27.3c-0.8,0-1.5,0.7-1.5,1.5c0,0.4,0.1,0.8,0.4,1.2
		c0.3,0.3,0.7,0.5,1.1,0.5h34.5c0.9,0,1.6-0.7,1.6-1.6v0c0-0.4-0.2-0.8-0.5-1.1C62.7,68.6,62.3,68.4,61.9,68.4z"/>
	<path class="st0" d="M61.9,62.7H27.3c-0.8,0-1.5,0.7-1.5,1.5c0,0.4,0.1,0.8,0.4,1.2c0.3,0.3,0.7,0.5,1.1,0.5h34.5
		c0.9,0,1.6-0.7,1.6-1.6v0C63.5,63.4,62.8,62.7,61.9,62.7z"/>
	<path class="st0" d="M61.9,27.9C61.9,27.9,61.9,27.9,61.9,27.9H27.3c-0.8,0-1.5,0.7-1.5,1.5c0,0.4,0.1,0.8,0.4,1.2
		c0.3,0.3,0.7,0.5,1.1,0.5h34.5c0.9,0,1.6-0.7,1.6-1.6v0C63.5,28.6,62.8,27.9,61.9,27.9z"/>
	<path class="st0" d="M27.3,20.7h34.5c0.9,0,1.6-0.7,1.6-1.6v0c0-0.9-0.7-1.6-1.6-1.6H27.3c-0.8,0-1.5,0.7-1.5,1.5
		c0,0.4,0.1,0.8,0.4,1.2C26.5,20.5,26.9,20.7,27.3,20.7z"/>
	<path class="st0" d="M78.8,12.3c-1.3-3-4.3-4.9-7.6-4.9c0,0,0,0,0,0H22.1c0,0,0,0-0.1,0c-2.2,0-4.2,0.8-5.7,2.3
		c-1.6,1.5-2.4,3.6-2.4,5.8v61.7c0,3.9,2.9,7.3,6.7,8c0.4,4.2,3.9,7.4,8.1,7.4c0,0,0,0,0.1,0h49.1c0,0,0,0,0.1,0
		c4.5,0,8.2-3.6,8.2-8.1V20.4C86.1,16.2,82.9,12.7,78.8,12.3z M71.2,85.3C71.2,85.3,71.2,85.3,71.2,85.3c4.5,0,8.2-3.6,8.2-8.1V15.9
		c1.9,0.6,3.3,2.4,3.3,4.5l0,64c0,2.6-2.2,4.8-4.8,4.8c0,0,0,0,0,0H28.8c0,0,0,0,0,0c-2.4,0-4.3-1.7-4.7-3.9H71.2z M22.1,10.8
		C22.1,10.8,22.1,10.8,22.1,10.8h49.1c0,0,0,0,0,0c1.7,0,3.4,0.9,4.2,2.4c0.3,0.6,0.5,1.2,0.6,1.9c0,0.1,0,0.3,0,0.4v61.7
		c0,2.6-2.2,4.8-4.8,4.8c0,0,0,0,0,0H22.1c-0.3,0-0.6,0-0.9-0.1c-2.3-0.4-4-2.4-4-4.7V15.5C17.3,12.9,19.4,10.8,22.1,10.8z"/>
</g>
</svg>
