<?xml version="1.0" encoding="utf-8"?>
<!-- Generator: Adobe Illustrator 24.0.1, SVG Export Plug-In . SVG Version: 6.00 Build 0)  -->
<svg version="1.1" id="Calque_1" xmlns="http://www.w3.org/2000/svg" xmlns:xlink="http://www.w3.org/1999/xlink" x="0px" y="0px"
	 viewBox="0 0 100 100" style="enable-background:new 0 0 100 100;" xml:space="preserve">
<style type="text/css">
	.st0{fill:#247E9E;}
</style>
<g>
	<path class="st0" d="M33.1,56.2C33.1,56.2,33.1,56.2,33.1,56.2l15.5,0l0.1,0l0,0c0.3,0,0.6-0.2,0.8-0.4c0.2-0.2,0.3-0.5,0.3-0.9
		c0-0.6-0.6-1.1-1.2-1.1l-15.4,0l-0.1,0l0,0c-0.3,0-0.6,0.2-0.8,0.4c-0.2,0.2-0.3,0.5-0.3,0.9C32,55.7,32.5,56.2,33.1,56.2z
		 M49.3,55L49.3,55L49.3,55L49.3,55z"/>
	<path class="st0" d="M56,60.7l0.1,0l0,0c0.4,0,0.7-0.2,0.9-0.4s0.4-0.6,0.3-1c0-0.7-0.6-1.3-1.4-1.2H33.4c-0.7,0-1.3,0.6-1.3,1.3
		c0,0.7,0.6,1.3,1.3,1.3L56,60.7z"/>
	<path class="st0" d="M33.4,52H56c0.7,0,1.3-0.6,1.3-1.3c0-0.7-0.6-1.3-1.3-1.3H33.4c-0.7,0-1.3,0.6-1.3,1.3
		C32.1,51.4,32.7,52,33.4,52z"/>
	<path class="st0" d="M65.4,72.7C65.4,72.7,65.4,72.7,65.4,72.7H33.9c-0.7,0-1.3,0.6-1.4,1.4c0,0.4,0.1,0.8,0.4,1.1
		c0.3,0.3,0.6,0.5,1,0.5h31.5c0.8,0,1.5-0.7,1.5-1.5v0c0-0.4-0.2-0.8-0.4-1C66.2,72.9,65.8,72.7,65.4,72.7z"/>
	<path class="st0" d="M65.4,67.4H33.9c-0.7,0-1.3,0.6-1.4,1.4c0,0.8,0.6,1.5,1.4,1.5h31.6c0.8,0,1.5-0.7,1.5-1.5v0
		C66.9,68.1,66.2,67.4,65.4,67.4z"/>
	<path class="st0" d="M80.9,21.4c-1.2-2.7-3.9-4.5-6.9-4.5c0,0,0,0,0,0H49.6C46.4,9.5,39,4.2,30.4,4.2c-11.6,0-21,9.4-21,21
		c0,8.4,5,15.7,12.2,19v36.5c0,3.6,2.6,6.7,6.1,7.3c0.3,3.8,3.6,6.8,7.4,6.8c0,0,0,0,0.1,0H80c0,0,0,0,0,0c4.1,0,7.5-3.3,7.5-7.4
		V28.8C87.6,25,84.6,21.8,80.9,21.4z M12.4,25.2c0-9.9,8.1-18,18-18c9.9,0,18,8.1,18,18c0,9.9-8.1,18-18,18
		C20.4,43.2,12.4,35.1,12.4,25.2z M29.1,85.1c-0.3,0-0.5,0-0.8-0.1c-2.1-0.4-3.6-2.2-3.7-4.3V45.4c1.8,0.5,3.7,0.8,5.7,0.8
		c6.5,0,12.3-3,16.2-7.6h18.9c0.8,0,1.5-0.7,1.5-1.5v0c0-0.8-0.7-1.5-1.5-1.5c0,0,0,0,0,0H48.5c0.3-0.5,0.6-1,0.8-1.6h5.5
		c0.7,0,1.3-0.6,1.3-1.3c0-0.7-0.6-1.3-1.3-1.3h-4.5c0.2-0.8,0.4-1.5,0.6-2.3h14.5c0.8,0,1.5-0.7,1.5-1.5v0c0-0.8-0.7-1.5-1.5-1.5
		H51.3c0-0.3,0.1-0.7,0.1-1c0-1.8-0.3-3.5-0.7-5.2h23.3c0,0,0,0,0,0c1.6,0,3.1,0.8,3.9,2.2c0.3,0.5,0.5,1.1,0.5,1.8
		c0,0.1,0,0.2,0,0.4v56.3c0,2.4-2,4.4-4.4,4.4c0,0,0,0,0,0H29.1z M80.1,91.7C80.1,91.7,80.1,91.7,80.1,91.7H35.2c0,0,0,0,0,0
		c-2.2,0-3.9-1.5-4.3-3.6H74c0,0,0,0,0,0c4.1,0,7.4-3.3,7.5-7.4v-56c1.8,0.6,3,2.2,3,4.1l0,58.5C84.5,89.8,82.5,91.7,80.1,91.7z"/>
	<path class="st0" d="M32.2,36.6v-2.5c0.8-0.1,1.5-0.3,2.2-0.6c1-0.4,1.8-1.1,2.4-1.9c0.6-0.8,0.8-1.7,0.8-2.7c0-1-0.3-1.9-0.9-2.7
		c-0.6-0.7-1.3-1.2-2.1-1.5c-0.8-0.3-1.6-0.6-2.4-0.8c-0.2-0.1-0.3-0.1-0.5-0.2c-0.1,0-0.2-0.1-0.3-0.1c-0.8-0.2-1.7-0.5-2.5-0.8
		c0,0-0.1,0-0.1,0c-0.3-0.1-0.6-0.3-0.8-0.4c-0.2-0.1-0.4-0.3-0.6-0.5c-0.4-0.4-0.6-0.9-0.6-1.5c0-0.7,0.4-1.4,1-1.8
		c0.3-0.2,0.7-0.4,1-0.5c0.5-0.1,1.1-0.2,1.6-0.2c0.6,0,1.1,0.1,1.7,0.3c0,0,0.1,0,0.1,0c0.4,0.1,0.7,0.3,1.1,0.6
		c0.7,0.6,1.1,1.4,1.2,2.3h3.1c0-0.4-0.1-0.7-0.1-1.1c-0.2-1.2-0.9-2.3-1.9-3.1c-0.1-0.1-0.2-0.1-0.3-0.2c-0.9-0.6-1.9-1.1-3-1.2
		v-2.5h-3.4v2.5c-0.6,0.1-1.3,0.3-1.8,0.5c-0.9,0.4-1.8,1-2.4,1.9c-0.6,0.7-0.8,1.6-0.8,2.6c-0.1,1,0.3,2.1,0.9,2.9
		c0.6,0.7,1.3,1.2,2.1,1.6c0,0,0.1,0,0.1,0c0.6,0.3,1.3,0.5,1.9,0.7c0.4,0.1,0.9,0.3,1.4,0.4l0.2,0.1c0.7,0.2,1.3,0.4,1.8,0.5
		c0.5,0.2,0.9,0.4,1.4,0.6c0.7,0.3,1.1,1,1.1,1.8c0,0.8-0.4,1.5-1,2c-0.4,0.3-0.9,0.5-1.4,0.6c-0.4,0.1-0.9,0.1-1.3,0.1
		c-0.3,0-0.7,0-1-0.1c-0.4,0-0.7-0.1-1.1-0.3c-0.4-0.1-0.7-0.3-1-0.5c-0.7-0.5-1.2-1.3-1.3-2.2h-3.2c0.1,1.1,0.4,2.1,1.1,3
		c0.4,0.6,1,1.1,1.6,1.4c0.3,0.2,0.7,0.4,1,0.5c0.5,0.2,1.1,0.4,1.7,0.5v2.6H32.2z"/>
</g>
</svg>
