<svg xmlns="http://www.w3.org/2000/svg" width="20.287" height="20.276" viewBox="0 0 20.287 20.276">
  <g id="Ajouter-2" transform="translate(-1682.445 -192.508)">
    <path id="Path_46" data-name="Path 46" d="M1694.271,204.316h6.587a2.586,2.586,0,0,0,.6-.045,1.651,1.651,0,0,0,1.262-1.839,1.627,1.627,0,0,0-1.632-1.46c-2.1-.011-4.2-.005-6.3-.005h-.516v-6.6a2.432,2.432,0,0,0-.049-.6,1.673,1.673,0,0,0-3.3.393c-.009,2.1,0,4.2,0,6.3,0,.163-.015.324-.023.5h-.567c-2.022,0-4.043-.011-6.065.011a2.253,2.253,0,0,0-1.008.25,1.633,1.633,0,0,0-.748,1.875,1.667,1.667,0,0,0,1.574,1.208c2.1.011,4.2.006,6.3.006h.538v6.715a1.674,1.674,0,1,0,3.345.155c0-.047,0-.093,0-.139.007-1.667,0-3.334,0-5C1694.271,205.494,1694.271,204.939,1694.271,204.316Z" fill="#0f6b8d"/>
  </g>
</svg>
