<?xml version="1.0" encoding="utf-8"?>
<!-- Generator: Adobe Illustrator 24.0.1, SVG Export Plug-In . SVG Version: 6.00 Build 0)  -->
<svg version="1.1" id="Calque_1" xmlns="http://www.w3.org/2000/svg" xmlns:xlink="http://www.w3.org/1999/xlink" x="0px" y="0px"
	 viewBox="0 0 100 100" style="enable-background:new 0 0 100 100;" xml:space="preserve">
<style type="text/css">
	.st0{fill:#247E9E;}
</style>
<g id="telecharger_3_" transform="translate(950 15)">
	<path id="Path_42_3_" class="st0" d="M-901.5,54.9c-0.7-0.5-1.4-1-2-1.5c-6.3-6.9-12.6-13.7-18.9-20.6c-0.6-0.6-0.9-1.3-1.1-2
		c-0.5-1.3,0.7-2.7,2.5-3c0.1,0,0.2,0,0.3,0c3.4,0,6.9,0,10.3,0h1V-7.1c0-2.2,1-3.2,3.3-3.2c3.6,0,7.1,0,10.7,0c2,0,3.1,1.1,3.1,3
		v35h4.1c2.3,0,4.6,0,6.9,0c1.4-0.1,2.6,0.6,3,1.6c0.5,1.1,0.3,2.3-0.7,3.2c-3.5,3.8-7,7.7-10.5,11.5c-2.8,3-5.5,6.1-8.3,9.1
		c-0.7,0.6-1.5,1.3-2.3,1.8L-901.5,54.9z"/>
	<path id="Path_43_3_" class="st0" d="M-938.8,80.4c-1.9-0.6-3.4-1.9-4-3.6c-0.3-0.8-0.5-1.6-0.6-2.5c0-8.5,0-17,0-25.4
		c0-0.1,0-0.2,0.1-0.3h11.3v19h62.6v-19h11.4v24.8c0.5,2.8-1.3,5.6-4.4,6.8c-0.1,0-0.2,0.1-0.2,0.2H-938.8z"/>
</g>
</svg>
