<?xml version="1.0" encoding="utf-8"?>
<!-- Generator: Adobe Illustrator 24.0.1, SVG Export Plug-In . SVG Version: 6.00 Build 0)  -->
<svg version="1.1" id="Calque_1" xmlns="http://www.w3.org/2000/svg" xmlns:xlink="http://www.w3.org/1999/xlink" x="0px" y="0px"
	 viewBox="0 0 100 100" style="enable-background:new 0 0 100 100;" xml:space="preserve">
<style type="text/css">
	.st0{fill:#217D9D;}
</style>
<path class="st0" d="M1774.9,110.4h-154.5c-18.1,0-32.9-14.7-32.9-32.9v0c0-18.1,14.7-32.9,32.9-32.9h154.5
	c18.1,0,32.9,14.7,32.9,32.9v0C1807.7,95.7,1793,110.4,1774.9,110.4z"/>
<path class="st0" d="M-56.1,82.9L-56.1,82.9c18.1,0,32.9-14.7,32.9-32.9v0c0-18.1-14.7-32.9-32.9-32.9h0C-74.3,17.1-89,31.9-89,50v0
	C-89,68.1-74.3,82.9-56.1,82.9z"/>
<g>
	<path class="st0" d="M85.5,16.6H75v-5.3c0-0.8-0.4-1.6-1-2.2c-0.6-0.5-1.5-0.8-2.3-0.6l-57,10.2c-1.4,0.2-2.3,1.4-2.3,2.8v58.7
		c0,0.8,0.7,1.5,1.5,1.5c0.8,0,1.5-0.7,1.5-1.5V21.7L72,11.6v57.9c-2.7-3-6-5.4-9.7-7.1v-3.8c5.1-4,8.4-10.4,8.4-17.6
		c0-12.1-9.2-21.9-20.6-21.9c-11.4,0-20.6,9.8-20.6,21.9c0,7.3,3.3,13.7,8.5,17.7v3.9c-10.2,4.8-16.8,15-16.8,26.4
		c0,0.8,0.7,1.5,1.5,1.5c0.8,0,1.5-0.7,1.5-1.5c0-9.7,5.3-18.5,13.8-23v2.9c0,0.6,0.4,1.2,0.9,1.5c0.2,0.1,0.5,0.2,0.8,0.2
		c0.4,0,0.7-0.1,1-0.3l4.4-3.2c0.5,0.4,0.9,0.7,1.5,0.9l-3.8,12.3c-0.3,0.9-0.1,1.9,0.4,2.8l5.5,8.4c0.4,0.6,1,0.9,1.7,0.9
		c0,0,0,0,0,0c0.7,0,1.3-0.3,1.7-0.9l5.5-8.4c0.5-0.8,0.7-1.8,0.4-2.8l-3.8-12.2c0.5-0.2,0.9-0.5,1.4-0.8l4.1,3
		c0.3,0.2,0.7,0.3,1,0.3c0.3,0,0.5-0.1,0.8-0.2c0.6-0.3,0.9-0.9,0.9-1.5v-3.1c4.1,2.1,7.5,5.2,9.9,9c0,0.1,0.1,0.1,0.1,0.2
		c2.6,4.1,4.1,8.9,4.1,14c0,0.8,0.7,1.5,1.5,1.5s1.5-0.7,1.5-1.5c0-5.6-1.6-10.9-4.4-15.4V19.6h10.1v60.6c0,0.8,0.7,1.5,1.5,1.5
		s1.5-0.7,1.5-1.5v-61C88.1,17.8,86.9,16.6,85.5,16.6z M32.5,40.8c0-10.4,7.9-18.9,17.6-18.9c9.7,0,17.6,8.5,17.6,18.9
		c0,10.4-7.9,18.9-17.6,18.9c-3.5,0-6.8-1.1-9.5-3c-0.1-0.1-0.3-0.3-0.5-0.4C35.5,52.9,32.5,47.2,32.5,40.8z M41,63.4
		C41,63.4,41,63.4,41,63.4v-2.9c1.6,0.8,3.3,1.5,5.1,1.8l-1.5,1.1c-0.2,0.1-0.4,0.2-0.6,0.4c-0.1,0.1-0.1,0.1-0.1,0.2l-3,2.2V63.4z
		 M55,81c0,0.1,0,0.2,0,0.2l-4.7,7.1l-4.6-7.1c0-0.1-0.1-0.1,0-0.2l3.8-12.3c0.3,0,0.7,0.1,1,0.1c0.3,0,0.5,0,0.8,0L55,81z
		 M52.2,65.4c-0.1,0-0.3,0-0.4,0.1c-0.1,0-0.2,0.1-0.3,0.1c-1.3,0.2-2.7,0-3.8-0.7l2.5-1.8l2.7,2C52.6,65.2,52.4,65.3,52.2,65.4z
		 M54.1,62.3c1.8-0.4,3.5-1,5.2-1.9v5.7L54.1,62.3z"/>
	<rect x="20.4" y="30.4" class="st0" width="4.9" height="4.9"/>
	<rect x="20.4" y="43.6" class="st0" width="4.9" height="4.9"/>
	<rect x="20.4" y="56.8" class="st0" width="4.9" height="4.9"/>
	<rect x="77.6" y="30.4" class="st0" width="4.9" height="4.9"/>
	<rect x="77.6" y="43.6" class="st0" width="4.9" height="4.9"/>
	<rect x="77.6" y="56.8" class="st0" width="4.9" height="4.9"/>
</g>
</svg>
