<?xml version="1.0" encoding="utf-8"?>
<!-- Generator: Adobe Illustrator 24.0.1, SVG Export Plug-In . SVG Version: 6.00 Build 0)  -->
<svg version="1.1" id="Calque_1" xmlns="http://www.w3.org/2000/svg" xmlns:xlink="http://www.w3.org/1999/xlink" x="0px" y="0px"
	 viewBox="0 0 100 100" style="enable-background:new 0 0 100 100;" xml:space="preserve">
<style type="text/css">
	.st0{fill:#217D9D;}
</style>
<path class="st0" d="M1774.9,110.4h-154.5c-18.1,0-32.9-14.7-32.9-32.9v0c0-18.1,14.7-32.9,32.9-32.9h154.5
	c18.1,0,32.9,14.7,32.9,32.9v0C1807.7,95.7,1793,110.4,1774.9,110.4z"/>
<path class="st0" d="M-56.1,82.9L-56.1,82.9c18.1,0,32.9-14.7,32.9-32.9v0c0-18.1-14.7-32.9-32.9-32.9h0C-74.3,17.1-89,31.9-89,50v0
	C-89,68.1-74.3,82.9-56.1,82.9z"/>
<path class="st0" d="M50,7.5c-23.4,0-42.4,19-42.4,42.4c0,23.4,19,42.4,42.4,42.4s42.4-19,42.4-42.4C92.4,26.5,73.4,7.5,50,7.5z
	 M25.7,81c0.1-8.9,5.1-17,12.8-21.1v2.7c0,0.6,0.3,1.1,0.9,1.4c0.2,0.1,0.5,0.2,0.7,0.2c0.3,0,0.7-0.1,0.9-0.3l4.1-3
	c0.4,0.3,0.9,0.6,1.4,0.9L43,73.2c-0.3,0.9-0.1,1.8,0.4,2.6l5.1,7.8c0.3,0.5,0.9,0.8,1.6,0.8c0,0,0,0,0,0c0.6,0,1.2-0.3,1.6-0.8
	l5.2-7.8c0.5-0.8,0.6-1.7,0.4-2.6l-3.5-11.4c0.4-0.2,0.9-0.5,1.3-0.8l3.8,2.8c0.3,0.2,0.6,0.3,0.9,0.3c0.2,0,0.5-0.1,0.7-0.2
	c0.5-0.3,0.9-0.8,0.9-1.4v-2.8c8,4.1,13,12.2,13.1,21.3c-6.7,5.2-15.2,8.4-24.3,8.4C40.9,89.4,32.4,86.3,25.7,81z M50.2,62.6
	c0.2,0,0.5,0,0.7,0L54.4,74c0,0.1,0,0.1,0,0.2L50,80.9l-4.3-6.6c0-0.1,0-0.1,0-0.2l3.5-11.5C49.5,62.6,49.9,62.6,50.2,62.6z
	 M51.8,59.5c-0.1,0-0.3,0-0.4,0.1c-0.1,0-0.2,0.1-0.3,0.1c-0.3,0.1-0.6,0.1-1,0.1c-0.5,0-1-0.1-1.5-0.2c0,0,0,0,0,0c0,0,0,0,0,0
	c-0.4-0.1-0.7-0.3-1.1-0.5l2.3-1.7l2.6,1.9C52.2,59.4,52,59.5,51.8,59.5z M53.6,56.7c1.7-0.4,3.3-1,4.8-1.8v5.3L53.6,56.7z
	 M49.8,54.2c-3.3,0-6.3-1-8.9-2.8c-0.1-0.1-0.3-0.3-0.5-0.3c-4.3-3.2-7.1-8.5-7.1-14.5c0-9.7,7.3-17.6,16.4-17.6
	c9,0,16.4,7.9,16.4,17.6S58.9,54.2,49.8,54.2z M46.1,56.7l-1.4,1c-0.2,0.1-0.4,0.2-0.5,0.3c0,0-0.1,0.1-0.1,0.2l-2.8,2v-2.5
	c0,0,0,0,0,0v-2.7C42.8,55.7,44.5,56.3,46.1,56.7z M77,78.7c-0.9-9.6-6.9-18.1-15.8-22.1v-3.6c4.7-3.7,7.8-9.7,7.8-16.4
	c0-11.3-8.6-20.4-19.2-20.4c-10.6,0-19.2,9.2-19.2,20.4c0,6.8,3.1,12.8,7.9,16.5v3.7c-8.7,4.1-14.6,12.4-15.5,22
	c-7.7-7.2-12.5-17.5-12.5-28.9c0-21.8,17.7-39.6,39.6-39.6c21.8,0,39.6,17.7,39.6,39.6C89.6,61.2,84.8,71.5,77,78.7z"/>
</svg>
