<?xml version="1.0" encoding="utf-8"?>
<!-- Generator: Adobe Illustrator 24.0.1, SVG Export Plug-In . SVG Version: 6.00 Build 0)  -->
<svg version="1.1" id="Calque_1" xmlns="http://www.w3.org/2000/svg" xmlns:xlink="http://www.w3.org/1999/xlink" x="0px" y="0px"
	 viewBox="0 0 100 100" style="enable-background:new 0 0 100 100;" xml:space="preserve">
<style type="text/css">
	.st0{fill:#217D9D;}
</style>
<path class="st0" d="M1774.9,110.4h-154.5c-18.1,0-32.9-14.7-32.9-32.9v0c0-18.1,14.7-32.9,32.9-32.9h154.5
	c18.1,0,32.9,14.7,32.9,32.9v0C1807.7,95.7,1793,110.4,1774.9,110.4z"/>
<path class="st0" d="M-56.1,82.9L-56.1,82.9c18.1,0,32.9-14.7,32.9-32.9v0c0-18.1-14.7-32.9-32.9-32.9h0C-74.3,17.1-89,31.9-89,50v0
	C-89,68.1-74.3,82.9-56.1,82.9z"/>
<g>
	<path class="st0" d="M86.3,29.9c0-1.2-1-2.3-2.3-2.3H69c-1.1-3.4-3.2-6.5-6-8.9c-4.5-3.8-10.4-5.5-16.2-4.5
		c-7.6,1.2-13.5,6.5-15.8,13.4H16c-1.2,0-2.3,1-2.3,2.3v52.7c0,0,0,0,0,0c0,0.1,0,0.1,0,0.2c0,0.7,0.6,1.2,1.2,1.2
		c0.7,0,1.2-0.6,1.2-1.2c0-5.9,4.8-10.7,10.7-10.7c3.3,0,6.2,1.5,8.2,3.8c-1,2.1-1.5,4.4-1.5,6.9c0,0.7,0.6,1.2,1.2,1.2
		s1.2-0.6,1.2-1.2c0-1.5,0.2-2.9,0.7-4.3c0.6,1.3,0.9,2.8,0.9,4.3c0,0.7,0.6,1.2,1.2,1.2s1.2-0.6,1.2-1.2c0-2.6-0.8-5.1-2.1-7.1
		c2.4-4.2,7-7,12.2-7c5.1,0,9.6,2.7,12.1,6.8c-1.4,2.1-2.2,4.6-2.2,7.2c0,0.7,0.6,1.2,1.2,1.2s1.2-0.6,1.2-1.2c0-1.6,0.4-3.1,1-4.5
		c0.5,1.4,0.7,2.9,0.7,4.5c0,0.7,0.6,1.2,1.2,1.2c0.7,0,1.2-0.6,1.2-1.2c0-2.5-0.6-4.9-1.6-7c2-2.2,4.8-3.7,8.1-3.7
		c5.9,0,10.7,4.8,10.7,10.7c0,0.7,0.6,1.2,1.2,1.2s1.2-0.6,1.2-1.2c0,0,0,0,0,0c0,0,0,0,0,0V29.9z M66.7,61.1c0-3.6,2.9-6.5,6.5-6.5
		c3.6,0,6.5,2.9,6.5,6.5s-2.9,6.5-6.5,6.5C69.6,67.7,66.7,64.7,66.7,61.1z M20.4,61.1c0-3.6,2.9-6.5,6.5-6.5s6.5,2.9,6.5,6.5
		s-2.9,6.5-6.5,6.5S20.4,64.7,20.4,61.1z M16.2,75.2V30.1h14c-0.2,1.3-0.4,2.6-0.4,3.9v18.6c-0.9-0.3-1.9-0.5-2.9-0.5c-5,0-9,4-9,9
		c0,4.2,2.9,7.7,6.7,8.7C21.2,70.4,18.2,72.4,16.2,75.2z M41.5,55.5c0-4.8,3.9-8.8,8.8-8.8s8.8,3.9,8.8,8.8s-3.9,8.8-8.8,8.8
		S41.5,60.4,41.5,55.5z M63.8,73.5c-2.5-3.7-6.5-6.3-11.1-7.1c5-1.1,8.7-5.6,8.7-10.9c0-6.2-5-11.2-11.2-11.2S39,49.4,39,55.5
		c0,5.3,3.7,9.7,8.6,10.9c-4.7,0.7-8.8,3.4-11.3,7.2c-1.9-1.9-4.4-3.3-7.1-3.8c3.9-1,6.8-4.5,6.8-8.7c0-3-1.4-5.6-3.7-7.2V34
		c0-8.7,6.2-16,14.8-17.4c5.1-0.8,10.3,0.6,14.3,4c3.9,3.4,6.2,8.3,6.2,13.4v20.2c-2,1.7-3.3,4.2-3.3,7c0,4.2,2.9,7.7,6.7,8.7
		C68.2,70.3,65.7,71.6,63.8,73.5z M75.4,69.9c3.9-1,6.8-4.5,6.8-8.7c0-5-4-9-9-9c-1.1,0-2.2,0.2-3.2,0.6V34c0-1.3-0.1-2.6-0.4-3.9
		h14.2v45.1C81.9,72.4,78.9,70.5,75.4,69.9z"/>
	<rect x="37.4" y="27.6" class="st0" width="4" height="4"/>
	<rect x="47.7" y="27.6" class="st0" width="4" height="4"/>
	<rect x="58" y="27.6" class="st0" width="4" height="4"/>
	<rect x="37.4" y="37.3" class="st0" width="4" height="4"/>
	<rect x="21.2" y="34.8" class="st0" width="4" height="4"/>
	<rect x="21.2" y="44.5" class="st0" width="4" height="4"/>
	<rect x="74.9" y="34.8" class="st0" width="4" height="4"/>
	<rect x="74.9" y="44.5" class="st0" width="4" height="4"/>
	<rect x="47.7" y="37.3" class="st0" width="4" height="4"/>
	<rect x="58" y="37.3" class="st0" width="4" height="4"/>
</g>
</svg>
