<?xml version="1.0" encoding="utf-8"?>
<!-- Generator: Adobe Illustrator 24.0.1, SVG Export Plug-In . SVG Version: 6.00 Build 0)  -->
<svg version="1.1" id="Calque_1" xmlns="http://www.w3.org/2000/svg" xmlns:xlink="http://www.w3.org/1999/xlink" x="0px" y="0px"
	 viewBox="0 0 100 100" style="enable-background:new 0 0 100 100;" xml:space="preserve">
<style type="text/css">
	.st0{fill:#217D9D;}
</style>
<path class="st0" d="M1774.9,110.4h-154.5c-18.1,0-32.9-14.7-32.9-32.9v0c0-18.1,14.7-32.9,32.9-32.9h154.5
	c18.1,0,32.9,14.7,32.9,32.9v0C1807.7,95.7,1793,110.4,1774.9,110.4z"/>
<path class="st0" d="M-56.1,82.9L-56.1,82.9c18.1,0,32.9-14.7,32.9-32.9v0c0-18.1-14.7-32.9-32.9-32.9h0C-74.3,17.1-89,31.9-89,50v0
	C-89,68.1-74.3,82.9-56.1,82.9z"/>
<g>
	<path class="st0" d="M81.1,42.7c7-2.2,12.2-8.8,12.2-16.6c0-9.6-7.8-17.4-17.4-17.4c-3.8,0-7.4,1.2-10.4,3.5
		c-2.2,1.6-3.9,3.8-5.1,6.2H24.9c-8.9,0-16.2,7.3-16.2,16.2v39.9c0,8.7,6.9,15.8,15.5,16.2c0.1,0,0.1,0,0.2,0c0,0,0.1,0,0.1,0
		c0.1,0,0.3,0,0.4,0h39.9c0.9,0,1.7-0.1,2.5-0.2c0,0,0,0,0,0c7.7-1.2,13.6-7.9,13.6-16c0,0,0,0,0,0c0,0,0,0,0,0V42.7z M75.9,11
		c8.3,0,15.1,6.8,15.1,15.1s-6.8,15.1-15.1,15.1s-15.1-6.8-15.1-15.1c0-1.5,0.2-3,0.7-4.4c0.2-0.6,0.4-1.1,0.6-1.7c0,0,0,0,0-0.1
		C64.5,14.6,69.8,11,75.9,11z M24.9,20.7h34.4c0,0.1-0.1,0.2-0.1,0.3c-0.5,1.6-0.8,3.4-0.8,5.1c0,9.6,7.8,17.4,17.4,17.4
		c1,0,1.9-0.1,2.9-0.2v27.4L68.2,54.8c0,0,0,0,0,0c0,0,0,0,0,0c0,0,0-0.1-0.1-0.1c0,0,0,0,0,0c0,0,0,0,0,0c0,0-0.1,0-0.1-0.1
		c0,0,0,0,0,0c0,0,0,0-0.1,0c0,0-0.1,0-0.1,0c0,0,0,0-0.1,0c0,0,0,0-0.1,0c0,0-0.1,0-0.1,0c0,0,0,0-0.1,0c0,0,0,0-0.1,0
		c0,0-0.1,0-0.1,0c0,0,0,0-0.1,0c0,0,0,0,0,0c0,0,0,0,0,0c0,0,0,0,0,0c0,0-0.1,0-0.1,0c0,0,0,0-0.1,0c0,0,0,0-0.1,0c0,0,0,0,0,0
		l-21.2,6.3L25.1,46.4c0,0,0,0,0,0c0,0,0,0,0,0c0,0,0,0,0,0c0,0,0,0-0.1,0c0,0,0,0-0.1,0c0,0,0,0,0,0c0,0,0,0,0,0c0,0-0.1,0-0.1,0
		c0,0,0,0-0.1,0c0,0,0,0,0,0c0,0,0,0,0,0c0,0-0.1,0-0.1,0c0,0,0,0-0.1,0c0,0,0,0,0,0c0,0,0,0,0,0c0,0-0.1,0-0.1,0c0,0-0.1,0-0.1,0
		c0,0,0,0,0,0c0,0-0.1,0-0.1,0c0,0-0.1,0-0.1,0c0,0,0,0,0,0c0,0-0.1,0-0.1,0c0,0-0.1,0-0.1,0c0,0,0,0,0,0c0,0-0.1,0-0.1,0.1
		c0,0,0,0-0.1,0.1c0,0,0,0,0,0c0,0,0,0.1-0.1,0.1c0,0,0,0,0,0.1c0,0,0,0,0,0c0,0,0,0,0,0c0,0,0,0,0,0L11.1,68.1V34.5
		C11.1,26.9,17.3,20.7,24.9,20.7z M25.6,49.6l18.7,12.9v25.8H25.6V49.6z M11.1,74.5v-1.8l12.2-21v36.6
		C16.4,87.4,11.1,81.6,11.1,74.5z M46.6,88.3V62.7L66,57v31.3c-0.4,0-0.8,0.1-1.2,0.1H46.6z M68.3,87.9V59.2l10.4,15.6
		C78.6,81.1,74.2,86.4,68.3,87.9z"/>
	<path class="st0" d="M75.9,30.6c-1.2,0-2.4-0.4-3.2-1.3c-0.3-0.4-0.9-0.5-1.4-0.3c-0.6,0.3-0.8,1.2-0.4,1.7
		c0.9,1.2,2.2,1.8,3.9,1.9v3.5c0,0.6,0.5,1.2,1.2,1.2c0.6,0,1.2-0.5,1.2-1.2v-3.6c2.3-0.3,4.1-1.6,4.1-4c0-3.1-2.5-3.8-5.2-4.1
		c-1.5-0.2-2.9-0.5-2.9-1.6c0-1,0.9-1.7,2.7-1.7c1,0,2,0.4,2.6,0.9c0.3,0.3,0.8,0.4,1.2,0.2l0.1,0c0.7-0.3,0.8-1.3,0.3-1.8
		c-0.8-0.7-1.8-1.1-2.8-1.3v-3.3c0-0.6-0.5-1.2-1.2-1.2c-0.6,0-1.2,0.5-1.2,1.2v3.3c-2,0.3-4,1.4-4,3.7c0,2.9,2.4,3.6,5,3.9
		c1.7,0.2,3,0.7,3,1.9C78.9,30,77.5,30.6,75.9,30.6z"/>
</g>
</svg>
