<?xml version="1.0" encoding="utf-8"?>
<!-- Generator: Adobe Illustrator 24.0.1, SVG Export Plug-In . SVG Version: 6.00 Build 0)  -->
<svg version="1.1" id="Calque_1" xmlns="http://www.w3.org/2000/svg" xmlns:xlink="http://www.w3.org/1999/xlink" x="0px" y="0px"
	 viewBox="0 0 100 100" style="enable-background:new 0 0 100 100;" xml:space="preserve">
<style type="text/css">
	.st0{fill:#217D9D;}
</style>
<path class="st0" d="M1774.9,110.4h-154.5c-18.1,0-32.9-14.7-32.9-32.9v0c0-18.1,14.7-32.9,32.9-32.9h154.5
	c18.1,0,32.9,14.7,32.9,32.9v0C1807.7,95.7,1793,110.4,1774.9,110.4z"/>
<g>
	<path class="st0" d="M91.3,55.6c-0.8-1.1-2-1.9-3.4-2.1c-0.8-0.1-1.6-0.1-2.3,0.2c-0.4-0.6-0.8-1.1-1.4-1.5
		c-2.3-1.7-5.6-1.1-7.2,1.2l-8.2,11.4l-2.5-0.2c0.7-0.9,1.2-2,1.3-3.2c0.2-2.9-1.8-5.4-4.6-5.9l-18.1-2.9c-3.1-0.5-6.3,0.2-8.9,2
		l-8,5.6l-0.4-0.5c-1.2-1.7-3.5-2-5.2-0.9L9.3,68.2c-1.7,1.2-2.1,3.5-0.9,5.2l13.5,18.7c0.7,1,1.9,1.6,3,1.6c0.8,0,1.5-0.2,2.2-0.7
		l13.1-9.4l0,0c1.7-1.2,2.1-3.5,0.9-5.2l-0.1-0.2l3.3-2.2c0.7-0.5,1.6-0.7,2.4-0.7h24.2c1.3,0,2.5-0.4,3.5-1.1l15.8-11.4
		C92.4,61.2,93,57.9,91.3,55.6z M78.8,54.7c0.9-1.3,2.8-1.6,4.1-0.7c0.3,0.2,0.5,0.5,0.7,0.7l-9.9,7.1L78.8,54.7z M25.8,91.2
		c-0.6,0.5-1.5,0.3-2-0.3L10.3,72.1c-0.5-0.6-0.3-1.5,0.3-2l8.8-6.3l15.1,21.1L25.8,91.2z M38.8,81.8L38.8,81.8l-2.4,1.8L21.2,62.5
		l2.4-1.8c0.3-0.2,0.5-0.3,0.8-0.3c0.4,0,0.9,0.2,1.2,0.6l13.5,18.7C39.6,80.4,39.5,81.3,38.8,81.8z M88.8,61L72.9,72.4
		c-0.6,0.5-1.4,0.7-2.2,0.7H46.6c-1.3,0-2.6,0.4-3.7,1.1l-3.3,2.2L29.3,62.1l8-5.5c2.1-1.5,4.7-2.1,7.2-1.6l18.1,2.9
		c1.7,0.3,2.9,1.8,2.7,3.5c-0.1,1.8-1.6,3.1-3.4,3l-4.3-0.3l-17.9-1.3c-0.6,0-1.2,0.4-1.2,1.1c0,0.6,0.4,1.2,1.1,1.2L54.4,66
		c0,0,0,0,0,0l3.1,0.2l4,0.3c0.1,0,0.1,0,0.2,0l8.1,0.6l0,0c0.2,0,0.5-0.1,0.7-0.2l14.8-10.6c0.6-0.5,1.4-0.6,2.2-0.5
		c0.8,0.1,1.4,0.5,1.9,1.2C90.4,58.2,90.1,60.1,88.8,61z"/>
	<path class="st0" d="M42.5,48h38.1c1,0,1.8-0.8,1.8-1.8V8.1c0-1-0.8-1.8-1.8-1.8H42.5c-1,0-1.8,0.8-1.8,1.8v38.1
		C40.7,47.2,41.5,48,42.5,48z M57.9,8.5H65v13l-3.7-3.7l-3.4,3.4V8.5z M43,8.5h12.6v14.2c0,0.7,0.4,1.3,1,1.5
		c0.6,0.3,1.3,0.1,1.8-0.4l2.9-2.9l3.2,3.2c0.3,0.3,0.7,0.5,1.2,0.5c0.2,0,0.4,0,0.6-0.1c0.6-0.3,1-0.9,1-1.5V8.5h12.9v37.2H43V8.5z
		"/>
	<path class="st0" d="M57.7,29.2H47.2c-1,0-1.8,0.8-1.8,1.8v10.5c0,1,0.8,1.8,1.8,1.8h10.5c1,0,1.8-0.8,1.8-1.8V31
		C59.5,30,58.7,29.2,57.7,29.2z M57.3,41h-9.5v-9.5h9.5V41z"/>
	<path class="st0" d="M50.5,35.4h3.9c0.6,0,1.1-0.5,1.1-1.1c0-0.6-0.5-1.1-1.1-1.1h-3.9c-0.6,0-1.1,0.5-1.1,1.1
		C49.4,34.9,49.9,35.4,50.5,35.4z"/>
	<path class="st0" d="M50.5,39.3h3.9c0.6,0,1.1-0.5,1.1-1.1c0-0.6-0.5-1.1-1.1-1.1h-3.9c-0.6,0-1.1,0.5-1.1,1.1
		C49.4,38.8,49.9,39.3,50.5,39.3z"/>
</g>
</svg>
