<?xml version="1.0" encoding="utf-8"?>
<!-- Generator: Adobe Illustrator 24.0.1, SVG Export Plug-In . SVG Version: 6.00 Build 0)  -->
<svg version="1.1" id="Calque_1" xmlns="http://www.w3.org/2000/svg" xmlns:xlink="http://www.w3.org/1999/xlink" x="0px" y="0px"
	 viewBox="0 0 100 100" style="enable-background:new 0 0 100 100;" xml:space="preserve">
<style type="text/css">
	.st0{fill:#217D9D;}
</style>
<path class="st0" d="M1774.9,110.4h-154.5c-18.1,0-32.9-14.7-32.9-32.9v0c0-18.1,14.7-32.9,32.9-32.9h154.5
	c18.1,0,32.9,14.7,32.9,32.9v0C1807.7,95.7,1793,110.4,1774.9,110.4z"/>
<path class="st0" d="M-56.1,82.9L-56.1,82.9c18.1,0,32.9-14.7,32.9-32.9v0c0-18.1-14.7-32.9-32.9-32.9h0C-74.3,17.1-89,31.9-89,50v0
	C-89,68.1-74.3,82.9-56.1,82.9z"/>
<g>
	<path class="st0" d="M23.5,66.6c-1.8-0.2-3.3-0.6-3.3-1.9c0-1.1,1-2,3.1-2c1.2,0,2.3,0.5,3,1c0.4,0.3,0.9,0.4,1.4,0.2l0.1,0
		c0.8-0.4,0.9-1.5,0.3-2c-0.9-0.9-2.1-1.3-3.4-1.5v-3.8c0-0.7-0.6-1.3-1.3-1.3s-1.3,0.6-1.3,1.3v3.8c-2.4,0.3-4.7,1.6-4.7,4.3
		c0,3.3,2.8,4.1,5.8,4.5c2,0.2,3.4,0.8,3.4,2.2c0,1.6-1.7,2.2-3.4,2.2c-1.4,0-2.8-0.5-3.7-1.5c-0.4-0.5-1.1-0.6-1.6-0.3
		c-0.7,0.4-1,1.3-0.5,2c1.1,1.4,2.6,2.1,4.6,2.2v4.1c0,0.7,0.6,1.3,1.3,1.3s1.3-0.6,1.3-1.3V76c2.7-0.4,4.8-1.8,4.8-4.6
		C29.5,67.8,26.6,67,23.5,66.6z"/>
	<path class="st0" d="M32.1,65.1h11.5c0.7,0,1.3-0.6,1.3-1.3c0-0.7-0.6-1.3-1.3-1.3H32.1c-0.7,0-1.3,0.6-1.3,1.3
		C30.9,64.5,31.4,65.1,32.1,65.1z"/>
	<path class="st0" d="M32.1,74h11.5c0.7,0,1.3-0.6,1.3-1.3c0-0.7-0.6-1.3-1.3-1.3H32.1c-0.7,0-1.3,0.6-1.3,1.3
		C30.9,73.5,31.4,74,32.1,74z"/>
	<path class="st0" d="M63,80.1H32.1c-0.7,0-1.3,0.6-1.3,1.3c0,0.7,0.6,1.3,1.3,1.3H63c0.7,0,1.3-0.6,1.3-1.3
		C64.3,80.6,63.7,80.1,63,80.1z"/>
	<path class="st0" d="M89.7,76.1l-9.3-9.3c1.6-2.6,2.5-5.6,2.5-8.9c0-5.6-2.7-10.5-6.8-13.7V17.6c0-3.7-3-6.7-6.7-6.7H16.2
		c-3.7,0-6.7,3-6.7,6.7v67.5c0,3.7,3,6.7,6.7,6.7h53.1c3.7,0,6.7-3,6.7-6.7V74.8l7.5,7.5c0.8,0.8,2,1.3,3.1,1.3
		c1.1,0,2.2-0.4,3.1-1.3c0.8-0.8,1.3-1.9,1.3-3.1C91,78,90.5,76.9,89.7,76.1z M80.3,57.9c0,8-6.5,14.6-14.6,14.6S51.1,66,51.1,57.9
		s6.5-14.6,14.6-14.6S80.3,49.9,80.3,57.9z M30.9,49.6c0,0.3-0.3,0.6-0.6,0.6h-6.5c-0.3,0-0.6-0.3-0.6-0.6v-5.1
		c0-0.3,0.3-0.6,0.6-0.6h6.5c0.3,0,0.6,0.3,0.6,0.6V49.6z M33.4,44.5V34.3c0-0.3,0.3-0.6,0.6-0.6h6.5c0.3,0,0.6,0.3,0.6,0.6v15.2
		c0,0.3-0.3,0.6-0.6,0.6H34c-0.3,0-0.6-0.3-0.6-0.6V44.5z M43.7,34.3V23.2c0-0.3,0.3-0.6,0.6-0.6h6.5c0.3,0,0.6,0.3,0.6,0.6v10.1
		v15.2c-0.4,0.5-0.7,1.1-1,1.7h-6.2c-0.3,0-0.6-0.3-0.6-0.6V34.3z M61.8,41.3c-3,0.7-5.6,2.2-7.8,4.2V33.3c0-0.3,0.3-0.6,0.6-0.6
		h6.5c0.3,0,0.6,0.3,0.6,0.6V41.3z M69.4,89.2H16.2c-2.3,0-4.2-1.9-4.2-4.2V17.6c0-2.3,1.9-4.2,4.2-4.2h53.1c2.3,0,4.2,1.9,4.2,4.2
		v25.1c-2.3-1.2-5-1.9-7.8-1.9c-0.5,0-0.9,0-1.4,0.1v-7.6c0-1.7-1.4-3.1-3.1-3.1h-6.5c-0.2,0-0.4,0-0.6,0.1v-7
		c0-1.7-1.4-3.1-3.1-3.1h-6.5c-1.7,0-3.1,1.4-3.1,3.1v8.1c-0.2,0-0.4-0.1-0.6-0.1H34c-1.7,0-3.1,1.4-3.1,3.1v7
		c-0.2,0-0.4-0.1-0.6-0.1h-6.5c-1.7,0-3.1,1.4-3.1,3.1v5.1c0,1.7,1.4,3.1,3.1,3.1h6.5c0.7,0,1.4-0.2,1.9-0.6
		c0.5,0.4,1.2,0.6,1.9,0.6h6.5c0.7,0,1.4-0.2,1.9-0.6c0.5,0.4,1.2,0.6,1.9,0.6h5.1c-0.5,1.6-0.8,3.4-0.8,5.2
		c0,9.4,7.7,17.1,17.1,17.1c2.8,0,5.4-0.7,7.8-1.9v11.9C73.5,87.4,71.7,89.2,69.4,89.2z M87.9,80.5c-0.7,0.7-1.9,0.7-2.6,0l-9.1-9.1
		c1-0.7,1.8-1.6,2.6-2.5l9,9c0.3,0.3,0.5,0.8,0.5,1.3S88.2,80.1,87.9,80.5z"/>
	<path class="st0" d="M63.9,55c0.8-0.8,1.2-1.8,1.2-3.1c0-1.3-0.4-2.3-1.2-3.1c-0.8-0.8-1.8-1.1-3-1.1c-1.2,0-2.2,0.4-3,1.1
		c-0.8,0.8-1.2,1.8-1.2,3.1c0,1.3,0.4,2.3,1.2,3.1c0.8,0.8,1.8,1.2,3,1.2C62.2,56.2,63.2,55.8,63.9,55z M59,51.9
		c0-1.7,0.7-2.6,2-2.6c1.3,0,2,0.9,2,2.6c0,1.7-0.7,2.6-2,2.6C59.6,54.5,59,53.7,59,51.9z"/>
	<path class="st0" d="M69.5,59.6c-1.2,0-2.2,0.4-3,1.2c-0.8,0.8-1.2,1.8-1.2,3.1c0,1.3,0.4,2.3,1.2,3.1c0.8,0.8,1.8,1.1,3,1.1
		c1.2,0,2.2-0.4,3-1.1c0.8-0.8,1.2-1.8,1.2-3.1c0-1.3-0.4-2.3-1.2-3.1C71.7,60,70.7,59.6,69.5,59.6z M69.5,66.4c-1.3,0-2-0.9-2-2.6
		c0-1.7,0.7-2.6,2-2.6c1.3,0,2,0.9,2,2.6C71.5,65.5,70.8,66.4,69.5,66.4z"/>
	<path class="st0" d="M70.3,48c-0.4,0-0.8,0.2-1,0.6L59.2,66c-0.4,0.7,0.1,1.7,1,1.7h0c0.4,0,0.8-0.2,1-0.6l10.2-17.4
		C71.7,49,71.2,48,70.3,48z"/>
</g>
</svg>
